<svg width="73" height="73" viewBox="0 0 73 73" fill="none" xmlns="http://www.w3.org/2000/svg">
<g clip-path="url(#clip0_172_107)">
<path fill-rule="evenodd" clip-rule="evenodd" d="M13.4243 8.21448L30.0631 28.6379C29.8928 28.7725 29.7384 28.9229 29.5682 29.0733L11.8289 9.60005C12.3435 9.125 12.874 8.66974 13.4243 8.21052V8.21448ZM11.5795 9.82966L29.5088 29.1287C29.3584 29.2633 29.204 29.394 29.0734 29.5484L9.90493 11.4844C10.4552 10.9144 11.0094 10.3641 11.5795 9.82966ZM17.2287 5.49479L31.1478 27.8778C30.9578 28.0124 30.7677 28.1232 30.5777 28.2578L15.4433 6.67451C16.0331 6.27468 16.623 5.87484 17.2287 5.49479ZM15.1939 6.86453L30.5025 28.2934C30.3877 28.3885 30.257 28.4835 30.1422 28.5785L13.6935 8.00466C14.1685 7.62462 14.6832 7.22478 15.1939 6.86453ZM21.4487 3.23433L32.3235 27.2681C32.1137 27.3631 31.9039 27.4581 31.698 27.5531L19.4892 4.20423C20.1344 3.85982 20.7837 3.53915 21.4487 3.23433ZM19.2041 4.35466L31.6228 27.6086C31.4882 27.6838 31.3576 27.759 31.223 27.8382L17.5137 5.32457C18.064 4.98015 18.6341 4.65949 19.2081 4.35466H19.2041ZM26.1082 1.50038L33.6379 26.7891C33.4082 26.8445 33.1826 26.9237 32.9728 26.9989L24.0536 2.18525C24.7385 1.9398 25.4234 1.7102 26.1082 1.50038ZM23.7488 2.28026L32.8778 27.0385C32.7273 27.0939 32.5729 27.1533 32.4027 27.2285L21.7536 3.09973C22.3989 2.8147 23.0837 2.54946 23.7488 2.28026ZM28.3885 0.910521L34.1683 26.6387C34.0179 26.6783 33.8635 26.7139 33.7131 26.7535L26.4289 1.40537C27.0742 1.21535 27.7234 1.06491 28.3885 0.910521ZM34.2633 26.6189L28.7092 0.835304C29.4138 0.68487 30.1343 0.550271 30.8588 0.435466L34.9482 26.4882C34.7186 26.5278 34.493 26.5635 34.2633 26.6228V26.6189ZM33.048 0.170228L35.4629 26.4289C35.3283 26.4486 35.1778 26.4684 35.0432 26.4843L31.1834 0.376085C31.7931 0.300868 32.4185 0.225651 33.048 0.166269V0.170228ZM35.5579 26.413L33.3726 0.134599C34.0773 0.0791757 34.778 0.0395879 35.5024 0.0197939L36.2427 26.3734C36.0131 26.3932 35.7875 26.3932 35.5579 26.413ZM37.7431 0.0197939L36.7534 26.3734H36.4882H36.3377L35.8231 0C36.0527 0 36.2784 0 36.4882 0C36.9078 0 37.3235 0.0197939 37.7431 0.0197939ZM36.8484 26.3734L38.0638 0.0356291C38.8041 0.0752169 39.5285 0.110846 40.2688 0.186063L37.5689 26.4289C37.3393 26.4091 37.0939 26.3893 36.8484 26.3734ZM42.7035 0.530477L38.139 26.5041C37.9886 26.4843 37.8144 26.4645 37.6639 26.4486L40.5934 0.225651C41.2981 0.300868 41.9988 0.395879 42.7035 0.530477ZM38.2142 26.5239L43.0043 0.5859C43.7446 0.720499 44.4691 0.870933 45.1896 1.04116L38.9347 26.6743C38.7051 26.6189 38.4597 26.5595 38.2102 26.5239H38.2142ZM47.5688 1.7102L39.4889 26.8287C39.3345 26.7733 39.1841 26.7337 39.0337 26.6941L45.4984 1.12034C46.203 1.29056 46.8879 1.50038 47.5728 1.7102H47.5688ZM39.5839 26.8485L47.8736 1.80521C48.5189 2.03482 49.1682 2.26047 49.8134 2.50987L40.2292 27.0781C40.0194 27.0029 39.7938 26.9277 39.5839 26.8485ZM51.8126 3.36497L40.6687 27.2681C40.5539 27.2127 40.439 27.1533 40.3242 27.1177L50.1183 2.62467C50.6883 2.85428 51.2386 3.09973 51.8126 3.36497ZM40.7637 27.3037L52.0977 3.49561C52.7429 3.80043 53.3724 4.12505 53.9979 4.46551L41.3892 27.6244C41.1793 27.5096 40.9695 27.3948 40.7597 27.2998L40.7637 27.3037ZM55.9931 5.64523L41.8444 27.8738C41.7296 27.7986 41.599 27.7392 41.4842 27.664L54.2829 4.61594C54.853 4.94056 55.4428 5.28102 55.9931 5.64127V5.64523ZM58.0477 7.0506L42.5293 28.3291C42.3393 28.1945 42.1294 28.0638 41.9196 27.9292L56.2583 5.81546C56.868 6.21529 57.4776 6.61513 58.0438 7.0506H58.0477ZM60.0271 8.61036L42.9885 28.6893C42.8539 28.5745 42.7431 28.4795 42.6085 28.3845L58.3169 7.24062C58.9068 7.68004 59.4768 8.1353 60.0271 8.61036ZM43.9782 29.6236L63.5623 12.0149C64.0176 12.5098 64.457 13.0244 64.8727 13.5549L44.4295 30.1382C44.2949 29.968 44.1445 29.7938 43.9742 29.6236H43.9782ZM66.2068 15.3047L44.7383 30.5341C44.6631 30.4193 44.5879 30.3045 44.4928 30.2095L65.0864 13.8003C65.4665 14.2952 65.8465 14.79 66.2068 15.3007V15.3047ZM67.5963 17.3791L45.1975 31.2031C45.0827 30.9933 44.9323 30.8033 44.7977 30.5935L66.4008 15.5699C66.8204 16.1598 67.2202 16.7694 67.6003 17.3751L67.5963 17.3791ZM69.8211 21.5991L45.823 32.3829C45.728 32.1533 45.633 31.9434 45.4984 31.7178L68.8671 19.6435C69.2075 20.2888 69.5124 20.938 69.8172 21.6031L69.8211 21.5991ZM68.7166 19.3545L45.4627 31.6386C45.3875 31.5238 45.3281 31.3932 45.2529 31.2784L67.7665 17.6641C68.0912 18.2144 68.4118 18.7844 68.7166 19.3585V19.3545ZM70.6921 23.7646L46.0684 32.9094C45.9932 32.7589 45.9338 32.6046 45.8586 32.4541L69.9518 21.8802C70.217 22.5057 70.4664 23.1153 70.6921 23.7646ZM46.7137 37.5689L72.8021 40.1936C72.8773 39.5087 72.9169 38.7882 72.9525 38.0835L46.7493 36.884C46.7493 37.1136 46.7296 37.3393 46.7098 37.5689H46.7137ZM46.6385 38.1785L72.4617 42.6836C72.5765 41.979 72.6913 41.2585 72.7665 40.5142L46.7137 37.6441C46.6939 37.8341 46.6741 38.0043 46.6385 38.1746V38.1785ZM39.6235 46.4128L47.458 71.3017C48.1428 71.0919 48.8079 70.8662 49.473 70.6168L40.2332 46.203C40.0432 46.2782 39.8333 46.3534 39.6235 46.4128ZM40.3282 46.1674L49.758 70.506C50.4785 70.2209 51.1832 69.9161 51.8879 69.5915L40.9181 45.8982C40.728 45.9932 40.538 46.0882 40.3282 46.1634V46.1674ZM41.0131 45.8625L52.1768 69.4609C52.8419 69.1362 53.4872 68.8156 54.1364 68.4514L41.5673 45.5775C41.3773 45.6725 41.2071 45.7675 41.017 45.8625H41.0131ZM56.0169 67.331L42.078 45.2529C41.9434 45.3479 41.7929 45.4429 41.6425 45.5181L54.4215 68.297C54.9559 67.9921 55.4864 67.6675 56.0169 67.3271V67.331ZM42.6678 44.857L58.0319 65.9652C57.4618 66.3849 56.872 66.7847 56.2821 67.1648L42.1532 45.2014C42.3234 45.0866 42.4976 44.9718 42.6678 44.857ZM43.1983 44.4017L60.0271 64.3857C60.5774 63.9106 61.1316 63.4356 61.6621 62.9209L43.6932 43.9623C43.5229 44.1127 43.3685 44.2671 43.1983 44.3978V44.4017ZM42.7431 44.8016L58.2773 65.7752C58.792 65.3952 59.2868 65.0151 59.7777 64.5955L43.1389 44.477C43.0043 44.572 42.8737 44.6868 42.7391 44.8016H42.7431ZM44.093 43.5466L63.1862 61.3849C63.6811 60.8703 64.1561 60.32 64.6114 59.7895L44.5126 43.0558C44.378 43.226 44.2276 43.4002 44.093 43.5506V43.5466ZM43.7486 43.9069L61.8877 62.6953C62.248 62.3509 62.6082 61.9906 62.9725 61.6106L44.0138 43.6219C43.9386 43.7169 43.8436 43.8119 43.7486 43.9069ZM44.9481 42.4619L66.3018 57.5607C66.7214 56.9709 67.1213 56.381 67.4815 55.7714L45.3083 41.9077C45.1935 42.0977 45.0787 42.2877 44.9481 42.458V42.4619ZM44.5681 42.9924L64.8014 59.5164C65.2567 58.9661 65.6961 58.396 66.1118 57.822L44.8927 42.5332C44.7977 42.6876 44.6829 42.838 44.5681 42.9884V42.9924ZM45.633 41.298L68.7919 53.4872C69.1363 52.8577 69.4371 52.2124 69.742 51.5671L45.918 40.7082C45.8428 40.8982 45.7478 41.108 45.633 41.298ZM45.3479 41.8325L67.6517 55.4863C68.012 54.9361 68.3366 54.3462 68.6612 53.7761L45.5973 41.397C45.5221 41.5316 45.4429 41.6821 45.3519 41.8364L45.3479 41.8325ZM46.6227 38.2775L72.4062 43.0122C72.2914 43.6971 72.141 44.3819 71.9866 45.047L46.5079 38.9228C46.5475 38.713 46.6029 38.4834 46.6227 38.2775ZM71.4957 46.8918L46.397 39.382C46.4366 39.2474 46.4524 39.1366 46.492 39.0217L71.9153 45.3716C71.7807 45.8863 71.6501 46.3811 71.4957 46.8918ZM46.1674 40.1025L70.7158 49.2315C70.9613 48.5664 71.1909 47.8815 71.4007 47.1966L46.3772 39.4572C46.302 39.6868 46.2426 39.8927 46.1674 40.1025ZM45.9576 40.6171L69.8805 51.2663C70.126 50.6962 70.3754 50.1261 70.605 49.5165L46.1318 40.1817C46.0764 40.3321 46.017 40.4865 45.9615 40.6211L45.9576 40.6171ZM43.5982 29.2277L61.8521 10.2691C61.3375 9.77424 60.8268 9.27939 60.2726 8.82413L43.0439 28.7527C43.2339 28.9031 43.424 29.0575 43.5942 29.2277H43.5982ZM43.9228 29.5721L63.3367 11.7932C62.9368 11.338 62.5172 10.9183 62.1015 10.4829L43.6575 29.3069C43.7525 29.3821 43.8476 29.4771 43.9228 29.5721ZM28.5785 30.1224L8.25016 13.3886C8.70542 12.8185 9.20027 12.2683 9.69512 11.7338L29.014 29.6276C28.8636 29.778 28.7092 29.9522 28.5785 30.1224ZM8.04035 13.6341L28.5191 30.1778C28.3845 30.3283 28.2895 30.4826 28.1747 30.6331L6.74582 15.364C7.14566 14.7742 7.58113 14.2041 8.04035 13.6341ZM27.7591 31.2427L5.36025 17.4582C5.74029 16.8288 6.14013 16.2231 6.55976 15.6332L28.1233 30.7123C27.9887 30.8825 27.8778 31.0567 27.763 31.2427H27.7591ZM5.18606 17.7235L27.7195 31.318C27.6245 31.4526 27.5492 31.603 27.4542 31.7534L4.25575 19.3743C4.56057 18.824 4.8654 18.2698 5.18606 17.7195V17.7235ZM27.4146 31.8326L4.10135 19.6633C3.75694 20.3284 3.43628 20.9934 3.13145 21.6585L27.1296 32.4225C27.2246 32.2126 27.3196 32.0226 27.4146 31.8326ZM2.31594 23.6577L26.904 32.9569C26.9792 32.8065 27.0386 32.6521 27.094 32.5016L3.00081 21.9673C2.7712 22.5176 2.54555 23.0876 2.31594 23.6617V23.6577ZM26.6743 33.622L1.53606 25.9578C1.74588 25.2729 1.97549 24.6078 2.20114 23.9625L26.8842 33.0321C26.8089 33.2221 26.7337 33.4122 26.6743 33.622ZM26.2745 35.6568L0.146528 33.2617C0.201951 32.5214 0.296961 31.797 0.391972 31.0567L26.3458 35.0511C26.3062 35.2411 26.2903 35.4509 26.2706 35.6607L26.2745 35.6568ZM26.3695 34.9521L0.451354 30.7518C0.566159 30.0274 0.696799 29.3465 0.851191 28.6418L26.4843 34.3662C26.4447 34.5562 26.4091 34.7661 26.3695 34.9561V34.9521ZM1.46084 26.2626L26.6546 33.6972C26.5991 33.8872 26.5397 34.0772 26.5041 34.2672L0.910573 28.333C1.0808 27.6284 1.25499 26.9435 1.46084 26.2586V26.2626ZM26.2389 36.9869L0.0356816 37.9568C0.0158877 37.462 -0.00390625 36.9869 -0.00390625 36.4921C-0.00390625 36.3219 -0.00390625 36.1675 -0.00390625 35.9972L26.2389 36.4169L26.2191 36.6465C26.2191 36.7613 26.2389 36.8761 26.2389 36.9909V36.9869ZM26.2389 36.3417L0.0158877 35.6766C0.0158877 34.9719 0.0554755 34.287 0.110899 33.5863L26.2587 35.7558C26.2587 35.9458 26.2389 36.1556 26.2389 36.3456V36.3417ZM26.2785 37.6718L0.209868 40.4113C0.134651 39.7066 0.0752695 38.9861 0.0396404 38.2815L26.2428 37.0819C26.2428 37.272 26.2626 37.4818 26.2824 37.6718H26.2785ZM26.5081 39.0613L1.08476 45.336C1.25499 46.0565 1.4648 46.781 1.69441 47.4856L26.6981 39.6908C26.6229 39.481 26.5635 39.2712 26.5081 39.0613ZM3.55504 52.2203L27.1929 40.9813C27.0979 40.7913 27.0227 40.6211 26.9633 40.4509L2.68015 50.2449C2.94539 50.91 3.23042 51.5751 3.55504 52.2203ZM2.54555 49.9401L26.9238 40.3559C26.8485 40.1658 26.7733 39.9758 26.7139 39.7858L1.78546 47.7905C2.01507 48.5308 2.28031 49.2354 2.54555 49.9401ZM5.89073 56.4048L27.8145 42.1452C27.7393 42.0106 27.6443 41.8602 27.569 41.7098L4.84561 54.7144C5.18606 55.2844 5.53048 55.8545 5.89073 56.4087V56.4048ZM4.69121 54.4254L27.5097 41.6266C27.4146 41.4366 27.3196 41.2466 27.2246 41.0566L3.68568 52.5054C4.0103 53.1507 4.33096 53.7999 4.69517 54.4254H4.69121ZM8.70146 60.1498L28.6102 43.226C28.4954 43.0914 28.4004 42.9805 28.3054 42.8459L7.50195 58.6652C7.88199 59.1799 8.28183 59.6747 8.70146 60.1498ZM7.31193 58.4198L28.246 42.7707C28.1114 42.6005 27.9807 42.4105 27.8659 42.2204L6.07283 56.67C6.45287 57.2599 6.8725 57.8497 7.30797 58.4198H7.31193ZM26.3458 38.3013L0.486983 42.5609C0.391972 41.9513 0.316755 41.3416 0.241538 40.7359L26.2943 37.751C26.3141 37.941 26.3339 38.1112 26.3497 38.3013H26.3458ZM26.4804 38.9663L1.00163 45.0312C0.831397 44.3067 0.677005 43.606 0.546365 42.8816L26.3695 38.3765C26.4091 38.5863 26.4447 38.7763 26.4843 38.9663H26.4804ZM29.0852 43.7565L10.2969 61.9154C9.8218 61.4206 9.34674 60.9059 8.90732 60.3952L28.6656 43.3012C28.8002 43.4516 28.9507 43.606 29.0852 43.7565ZM38.1944 46.7612L42.4739 72.5091C43.1785 72.3943 43.8634 72.2637 44.5483 72.1093L38.8437 46.6464C38.6338 46.686 38.4042 46.7414 38.1984 46.7612H38.1944ZM47.1492 71.4046L39.5246 46.4563C39.3345 46.5118 39.1247 46.5712 38.9347 46.6266L44.8689 72.0301C45.6488 71.8401 46.4089 71.6303 47.1492 71.4007V71.4046ZM37.5095 46.8562L39.8848 72.8298C39.1801 72.905 38.4597 72.9446 37.7352 72.9644L36.8207 46.9116C37.0503 46.8918 37.276 46.872 37.5056 46.8562H37.5095ZM38.0994 46.781L42.169 72.5645C41.5238 72.6596 40.8745 72.7348 40.2094 72.81L37.6046 46.8522C37.7748 46.8324 37.9292 46.8126 38.0994 46.777V46.781ZM36.1596 46.9156L35.1343 72.9683C34.4494 72.9485 33.7645 72.9129 33.0797 72.8337L35.4945 46.8601C35.7241 46.8997 35.93 46.8997 36.1596 46.9156ZM36.7495 46.9156L37.4145 72.9842C37.1097 73.004 36.8049 73.004 36.4842 73.004C36.1398 73.004 35.7993 72.9842 35.4589 72.9842L36.2586 46.9156H36.4882H36.7534H36.7495ZM34.105 46.6305L28.2104 72.0539C28.8754 72.2043 29.5405 72.3389 30.2254 72.4537L34.7701 46.7651C34.5405 46.7255 34.3148 46.6899 34.105 46.6305ZM32.7748 72.8139L35.3995 46.8562C35.2293 46.8364 35.0393 46.8166 34.869 46.781L30.554 72.5091C31.2745 72.6437 32.0187 72.7387 32.7788 72.8139H32.7748ZM29.5405 44.2157L12.0268 63.5939C12.5771 64.0888 13.1472 64.5836 13.737 65.0587L30.071 44.6749C29.9008 44.5245 29.7107 44.3701 29.5405 44.2196V44.2157ZM15.661 66.4641L30.5896 45.0549C30.4392 44.9401 30.2848 44.8451 30.1541 44.7303L14.0102 65.2487C14.5407 65.6683 15.0949 66.084 15.665 66.468L15.661 66.4641ZM29.1605 43.8356L10.5265 62.149C10.9461 62.5686 11.3618 62.9684 11.7814 63.3683L29.4851 44.1642C29.3703 44.0494 29.2555 43.9346 29.1605 43.8396V43.8356ZM19.7108 68.9185L31.7495 45.7596C31.5951 45.6844 31.4447 45.5894 31.2943 45.5142L18.06 68.008C18.6103 68.3326 19.1447 68.6374 19.7148 68.9225L19.7108 68.9185ZM17.7908 67.8536L31.2151 45.4746C31.0251 45.3598 30.8548 45.2291 30.6648 45.1143L15.9262 66.658C16.5359 67.0777 17.1416 67.4775 17.7908 67.8575V67.8536ZM23.9903 70.8029L32.9649 46.2901C32.8144 46.2347 32.66 46.1753 32.4898 46.1199L22.2603 70.118C22.8304 70.3634 23.4004 70.5931 23.9903 70.8029ZM21.9753 70.0032L32.4146 46.0803C32.2246 45.9853 32.0147 45.8902 31.8247 45.7952L19.9959 69.0689C20.6412 69.3936 21.3062 69.6984 21.9713 69.9993L21.9753 70.0032ZM26.2349 71.5432L33.6299 46.5197C33.4399 46.4643 33.2499 46.4049 33.0599 46.3297L24.2951 70.9177C24.9246 71.1473 25.5698 71.3571 26.2349 71.5471V71.5432ZM27.9095 71.9786L34.0139 46.6107C33.9189 46.5909 33.8239 46.5553 33.7091 46.5355L26.5397 71.6184C26.995 71.753 27.4542 71.8638 27.9095 71.9786ZM46.6979 35.5459L72.8417 33.3211C72.9169 34.0258 72.9565 34.7265 72.9763 35.4509L46.7533 36.2308C46.7335 36.0012 46.7137 35.7755 46.6979 35.5459ZM72.9565 37.7708L46.7533 36.8009V36.6504C46.7533 36.5356 46.7533 36.4406 46.7533 36.3258L72.9763 35.7755C72.9763 36.021 72.9961 36.2506 72.9961 36.5C72.9961 36.9355 72.9763 37.3551 72.9565 37.7747V37.7708ZM46.4683 34.2158L72.1212 28.6062C72.2716 29.2911 72.4062 29.9957 72.521 30.6964L46.6227 34.9165C46.5672 34.6869 46.5277 34.4414 46.4722 34.2118L46.4683 34.2158ZM72.8219 33.0004L46.6939 35.4549C46.6741 35.3044 46.6543 35.1501 46.6187 34.9996L72.5765 31.025C72.6715 31.6703 72.7665 32.3354 72.8219 33.0044V33.0004ZM46.0843 33.0202L70.8029 24.0655C71.0484 24.7701 71.278 25.455 71.4878 26.1557L46.3099 33.6457C46.2347 33.4359 46.1595 33.2261 46.0803 33.0163L46.0843 33.0202ZM72.0579 28.2855L46.4445 34.1406C46.4049 34.006 46.3693 33.8753 46.3297 33.7407L71.5828 26.4764C71.753 27.0662 71.9074 27.6759 72.0579 28.2816V28.2855Z" fill="#55CD90"/>
<path fill-rule="evenodd" clip-rule="evenodd" d="M37.7471 0.0197939C37.4027 8.80434 37.1018 17.5889 36.7574 26.3734H36.4922H36.3418L35.8271 0C36.0567 0 36.2824 0 36.4922 0C36.9118 0 37.3275 0.0197939 37.7471 0.0197939ZM40.2768 0.190022L37.5769 26.4328C37.3473 26.413 37.1018 26.3932 36.8564 26.3774L38.0717 0.0395879C38.812 0.0791757 39.5563 0.114805 40.2768 0.190022ZM40.3322 46.1674L49.762 70.506C50.4825 70.2209 51.1872 69.9161 51.8919 69.5915L40.9221 45.8982C40.732 45.9932 40.542 46.0882 40.3322 46.1634V46.1674ZM49.477 70.6208L40.2372 46.2069C40.0472 46.2822 39.8374 46.3574 39.6275 46.4168L47.462 71.3056C48.1469 71.0958 48.8119 70.8702 49.477 70.6208ZM42.7075 0.530477L38.143 26.5041C37.9926 26.4843 37.8184 26.4645 37.6679 26.4486L40.5975 0.225651C41.3021 0.300868 42.0028 0.395879 42.7075 0.530477ZM45.1976 1.04512L38.9427 26.6783C38.7131 26.6228 38.4676 26.5634 38.2182 26.5278L43.0084 0.589859C43.7486 0.724458 44.4731 0.874892 45.1936 1.04512H45.1976ZM49.8175 2.50987L40.2332 27.0781C40.0234 27.0029 39.7978 26.9277 39.588 26.8485L47.8777 1.80521C48.5229 2.03482 49.1722 2.26047 49.8175 2.50987ZM47.5728 1.7102L39.493 26.8287C39.3386 26.7733 39.1881 26.7337 39.0377 26.6941L45.5024 1.12034C46.2071 1.29056 46.8919 1.50038 47.5768 1.7102H47.5728ZM51.8127 3.36497L40.6687 27.2681C40.5539 27.2127 40.4391 27.1533 40.3243 27.1177L50.1183 2.62467C50.6884 2.85428 51.2387 3.09973 51.8127 3.36497ZM53.9979 4.46947L41.3892 27.6284C41.1794 27.5136 40.9696 27.3988 40.7598 27.3037L52.0938 3.49561C52.739 3.80043 53.3685 4.12505 53.994 4.46551L53.9979 4.46947ZM55.9932 5.64919L41.8445 27.8778C41.7297 27.8025 41.599 27.7432 41.4842 27.6679L54.283 4.6199C54.853 4.94452 55.4429 5.28498 55.9932 5.64523V5.64919ZM35.55 26.413L33.3647 0.134599C34.0694 0.0791757 34.7701 0.0395879 35.4946 0.0197939L36.2349 26.3734C36.0053 26.3932 35.7796 26.3932 35.55 26.413ZM41.9197 27.9332L56.2584 5.81941C56.8681 6.21925 57.4777 6.61909 58.0438 7.05455L42.5293 28.333C42.3393 28.1984 42.1295 28.0678 41.9197 27.9332ZM60.0232 8.61432L42.9846 28.6933C42.85 28.5785 42.7392 28.4835 42.6046 28.3884L58.313 7.24458C58.9029 7.684 59.4729 8.13926 60.0232 8.61432ZM43.9743 29.6275L63.5584 12.0189C64.0137 12.5137 64.4531 13.0284 64.8688 13.5588L44.4256 30.1422C44.291 29.972 44.1406 29.7978 43.9703 29.6275H43.9743ZM66.2029 15.3086L44.7344 30.5381C44.6592 30.4233 44.5839 30.3085 44.4889 30.2134L65.0825 13.8043C65.4626 14.2991 65.8426 14.794 66.2029 15.3047V15.3086ZM46.7138 37.5768L72.8022 40.2015C72.8774 39.5166 72.917 38.7961 72.9526 38.0914L46.7494 36.8919C46.7494 37.1215 46.7296 37.3472 46.7098 37.5768H46.7138ZM46.6386 38.1864L72.4617 42.6915C72.5765 41.9869 72.6913 41.2664 72.7665 40.5221L46.7138 37.652C46.694 37.842 46.6742 38.0123 46.6386 38.1825V38.1864ZM41.0092 45.8704L52.1729 69.4688C52.838 69.1441 53.4833 68.8235 54.1325 68.4593L41.5634 45.5854C41.3734 45.6804 41.2031 45.7754 41.0131 45.8704H41.0092ZM56.013 67.3389L42.0741 45.2608C41.9395 45.3558 41.789 45.4508 41.6386 45.526L54.4176 68.3049C54.952 68.0001 55.4825 67.6754 56.013 67.335V67.3389ZM42.6639 44.8649L58.028 65.9732C57.4579 66.3928 56.8681 66.7926 56.2782 67.1727L42.1493 45.2093C42.3195 45.0945 42.4937 44.9797 42.6639 44.8649ZM43.1944 44.4097L60.0232 64.3936C60.5735 63.9185 61.1277 63.4435 61.6582 62.9289L43.6893 43.9702C43.519 44.1207 43.3646 44.2751 43.1944 44.4057V44.4097ZM42.7392 44.8095L58.2734 65.7831C58.7881 65.4031 59.2829 65.023 59.7738 64.6034L43.135 44.4849C43.0004 44.5799 42.8698 44.6947 42.7352 44.8095H42.7392ZM44.0891 43.5546L63.1823 61.3928C63.6772 60.8782 64.1522 60.3279 64.6075 59.7975L44.5087 43.0637C44.3741 43.2339 44.2237 43.4081 44.0891 43.5585V43.5546ZM43.7447 43.9148L61.8838 62.7032C62.2441 62.3588 62.6043 61.9985 62.9685 61.6185L44.0099 43.6298C43.9347 43.7248 43.8397 43.8198 43.7447 43.9148ZM44.9442 42.4698L66.2979 57.5687C66.7175 56.9788 67.1174 56.3889 67.4776 55.7793L45.3044 41.9156C45.1896 42.1056 45.0748 42.2957 44.9442 42.4659V42.4698ZM44.5642 43.0003L64.7975 59.5243C65.2528 58.974 65.6922 58.404 66.1079 57.8299L44.8888 42.5411C44.7938 42.6955 44.679 42.8459 44.5642 42.9964V43.0003ZM45.6291 41.306L68.788 53.4951C69.1324 52.8656 69.4333 52.2203 69.7381 51.5751L45.9141 40.7161C45.8389 40.9061 45.7439 41.1159 45.6291 41.306ZM45.344 41.8404L67.6478 55.4942C68.0081 54.944 68.3327 54.3541 68.6573 53.7841L45.5934 41.4049C45.5182 41.5395 45.439 41.69 45.348 41.8444L45.344 41.8404ZM46.6188 38.2854L72.4023 43.0201C72.2875 43.705 72.1371 44.3899 71.9827 45.0549L46.504 38.9307C46.5435 38.7209 46.599 38.4913 46.6188 38.2854ZM71.4918 46.8997L46.3931 39.3899C46.4327 39.2553 46.4485 39.1445 46.4881 39.0297L71.9114 45.3796C71.7768 45.8942 71.6462 46.389 71.4918 46.8997ZM46.1635 40.1104L70.7119 49.2394C70.9574 48.5743 71.187 47.8894 71.3968 47.2046L46.3733 39.4651C46.2981 39.6947 46.2387 39.9006 46.1635 40.1104ZM45.9537 40.6251L69.8766 51.2742C70.1221 50.7041 70.3715 50.1341 70.6011 49.5244L46.1279 40.1896C46.0724 40.34 46.0131 40.4944 45.9576 40.629L45.9537 40.6251ZM45.8191 32.3908L69.8172 21.607C69.5124 20.942 69.2076 20.2967 68.8671 19.6475L45.4984 31.7217C45.6132 31.9514 45.728 32.1572 45.823 32.3868L45.8191 32.3908ZM46.0645 32.9213L70.6882 23.7567C70.4586 23.1272 70.2131 22.5215 69.9479 21.8921L45.8547 32.466C45.9299 32.6204 45.9893 32.7708 46.0645 32.9213ZM45.1896 31.2111L67.5884 17.387C67.2084 16.7773 66.8086 16.1716 66.3889 15.5818L44.7858 30.6054C44.9204 30.8152 45.0709 31.0052 45.1857 31.215L45.1896 31.2111ZM45.4549 31.6465L68.7088 19.3624C68.404 18.7924 68.0793 18.2223 67.7389 17.6681L45.2451 31.2823C45.3203 31.3971 45.3797 31.5278 45.4549 31.6426V31.6465ZM43.5903 29.2317L61.8443 10.273C61.3296 9.7782 60.8189 9.28335 60.2647 8.82809L43.0361 28.7566C43.2261 28.907 43.4161 29.0614 43.5863 29.2317H43.5903ZM43.9149 29.5761L63.3486 11.7972C62.929 11.3419 62.5133 10.9223 62.0937 10.4868L43.6497 29.3108C43.7447 29.3861 43.8397 29.4811 43.9149 29.5761ZM32.961 27.0068L24.0418 2.19317C24.7267 1.94772 25.4115 1.71811 26.0964 1.5083L33.626 26.797C33.3964 26.8524 33.1708 26.9316 32.961 27.0068ZM23.737 2.28818L32.8659 27.0464C32.7155 27.1018 32.5611 27.1612 32.3909 27.2364L21.7418 3.10765C22.387 2.82261 23.0719 2.55738 23.737 2.28818ZM30.847 0.443384L34.9364 26.4961C34.7068 26.5357 34.4811 26.5714 34.2515 26.6307L28.6973 0.84718C29.402 0.696746 30.1225 0.562147 30.847 0.447343V0.443384ZM28.3767 0.918438L34.1565 26.6466C34.0061 26.6862 33.8517 26.7218 33.7012 26.7614L26.4171 1.41329C27.0624 1.22326 27.7116 1.07283 28.3767 0.918438ZM33.0362 0.178145L35.451 26.4368C35.3164 26.4566 35.166 26.4764 35.0314 26.4922L31.1716 0.384002C31.7812 0.308785 32.4067 0.233568 33.0362 0.174187V0.178145ZM31.6862 27.5611L19.4773 4.21215C20.1226 3.86773 20.7719 3.54707 21.4369 3.24224L32.3157 27.276C32.1059 27.371 31.896 27.4661 31.6862 27.5611ZM19.1923 4.36258L31.611 27.6165C31.4764 27.6917 31.3458 27.7669 31.2112 27.8461L17.5019 5.33248C18.0522 4.98807 18.6222 4.66741 19.1963 4.36258H19.1923ZM30.5619 28.2657L15.4275 6.68243C16.0174 6.28259 16.6072 5.88275 17.2169 5.50271L31.136 27.8857C30.9459 28.0203 30.7559 28.1311 30.5659 28.2657H30.5619ZM28.5667 30.1303L8.23834 13.3965C8.6936 12.8265 9.18845 12.2762 9.68329 11.7418L29.0022 29.6355C28.8517 29.7859 28.6973 29.9601 28.5667 30.1303ZM11.5677 9.84154L29.497 29.1406C29.3466 29.2752 29.1922 29.4059 29.0616 29.5602L9.89311 11.4963C10.4434 10.9262 10.9976 10.376 11.5677 9.84154ZM29.5564 29.0852L11.8171 9.61193C12.3317 9.13688 12.8622 8.68162 13.4125 8.2224L30.0512 28.6458C29.881 28.7804 29.7266 28.9308 29.5564 29.0812V29.0852ZM15.182 6.87641L30.4907 28.3053C30.3759 28.4003 30.2452 28.4953 30.1304 28.5903L13.6817 8.01654C14.1567 7.6365 14.6714 7.23666 15.182 6.87641ZM27.1257 32.4343L3.12755 21.6704C3.43237 21.0053 3.75699 20.3402 4.09745 19.6752L27.4107 31.8445C27.3157 32.0345 27.2207 32.2245 27.1257 32.4343ZM5.18216 17.7354L27.7156 31.3298C27.6206 31.4803 27.5453 31.6149 27.4503 31.7653L4.25184 19.3862C4.55667 18.8359 4.86149 18.2658 5.18216 17.7314V17.7354ZM27.7551 31.2546L5.35634 17.4701C5.73639 16.8407 6.13622 16.235 6.55585 15.6451L28.1194 30.7241C27.9848 30.8944 27.8739 31.0685 27.7591 31.2546H27.7551ZM8.03644 13.6459L28.5152 30.1897C28.3806 30.3401 28.2698 30.4945 28.1708 30.645L6.74192 15.3759C7.14175 14.7861 7.57722 14.216 8.03644 13.6459ZM26.6704 33.6299L1.53216 25.9657C1.74197 25.2808 1.97158 24.6157 2.19723 23.9704L26.8803 33.04C26.805 33.23 26.7457 33.4201 26.6704 33.6299ZM2.99691 21.9752L27.0901 32.5095C27.0347 32.66 26.9753 32.8144 26.9001 32.9648L2.31204 23.6656C2.54165 23.0956 2.7673 22.5255 2.99691 21.9713V21.9752ZM26.2706 35.6647L0.142621 33.2894C0.198044 32.5293 0.293055 31.8049 0.388066 31.0646L26.3419 35.059C26.3023 35.249 26.2864 35.4588 26.2666 35.6687L26.2706 35.6647ZM26.3656 34.96L0.447448 30.7598C0.562253 30.0353 0.692893 29.3544 0.847285 28.6497L26.4804 34.3741C26.4408 34.5642 26.4052 34.774 26.3656 34.964V34.96ZM1.45694 26.2705L26.6506 33.7051C26.5952 33.8951 26.5358 34.0851 26.5002 34.2752L0.906667 28.3409C1.07689 27.6363 1.25108 26.9514 1.45694 26.2665V26.2705ZM26.235 36.9948L0.0317754 37.9648C0.0119814 37.4699 -0.0078125 36.9948 -0.0078125 36.5C-0.0078125 36.3298 -0.0078125 36.1754 -0.0078125 36.0051L26.235 36.4248L26.2152 36.6544C26.2152 36.7692 26.235 36.884 26.235 36.9988V36.9948ZM0.106992 33.5903L26.2548 35.7597C26.2548 35.9497 26.235 36.1595 26.235 36.3496L0.0119814 35.6845C0.0119814 34.9798 0.0515693 34.295 0.106992 33.5943V33.5903ZM26.2706 37.6797L0.202003 40.4192C0.126786 39.7145 0.0674044 38.994 0.0317754 38.2894L26.235 37.0899C26.235 37.2799 26.2548 37.4897 26.2746 37.6797H26.2706ZM0.237632 40.7399L26.2904 37.7549C26.3102 37.945 26.33 38.1152 26.3458 38.3052L0.483077 42.5649C0.388066 41.9552 0.312849 41.3456 0.237632 40.7399ZM26.4804 38.9703L1.00168 45.0351C0.83145 44.3305 0.677057 43.61 0.546417 42.8855L26.3696 38.3804C26.4092 38.5902 26.4448 38.7803 26.4844 38.9703H26.4804ZM1.07689 45.34L26.5002 39.0653C26.5556 39.2751 26.615 39.4849 26.6902 39.6947L1.68655 47.4896C1.45694 46.7849 1.24712 46.0644 1.07689 45.34ZM26.9198 40.3559L2.54165 49.9401C2.27641 49.2354 2.01117 48.5347 1.78156 47.7905L26.71 39.7858C26.7655 39.9758 26.8446 40.1658 26.9198 40.3559ZM2.67624 50.2449L26.9594 40.4509C27.0149 40.6211 27.094 40.7953 27.189 40.9813L3.55114 52.2203C3.22652 51.5751 2.94148 50.91 2.67624 50.2409V50.2449ZM27.5097 41.6306L4.69127 54.4293C4.33102 53.7999 4.0064 53.1546 3.68178 52.5093L27.2207 41.0605C27.3157 41.2505 27.4107 41.4406 27.5057 41.6306H27.5097ZM28.25 42.7707L7.31594 58.4198C6.88047 57.8497 6.46084 57.2599 6.0808 56.67L27.8739 42.2165C27.9887 42.4065 28.1194 42.5965 28.254 42.7668L28.25 42.7707ZM4.8417 54.7144L27.5651 41.7098C27.6403 41.8602 27.7354 42.0146 27.8106 42.1452L5.88682 56.4048C5.52657 55.8545 5.18216 55.2844 4.8417 54.7104V54.7144ZM38.1945 46.7651L42.4739 72.5131C43.1786 72.3983 43.8634 72.2676 44.5483 72.1132L38.8437 46.6503C38.6339 46.6899 38.4043 46.7453 38.1984 46.7651H38.1945ZM47.1492 71.4086L39.5246 46.4603C39.3346 46.5157 39.1248 46.5751 38.9348 46.6305L44.869 72.0341C45.6489 71.844 46.4089 71.6342 47.1492 71.4046V71.4086ZM37.5096 46.8601L39.8849 72.8337C39.1802 72.9089 38.4597 72.9485 37.7352 72.9683L36.8208 46.9156C37.0504 46.8958 37.276 46.876 37.5056 46.8601H37.5096ZM38.0995 46.7849L42.1691 72.5685C41.5238 72.6635 40.8746 72.7387 40.2095 72.8139L37.6046 46.8562C37.7748 46.8364 37.9292 46.8166 38.0995 46.781V46.7849ZM36.1596 46.9195L35.1343 72.9723C34.4495 72.9525 33.7646 72.9169 33.0797 72.8377L35.4946 46.8641C35.7242 46.9037 35.93 46.9037 36.1596 46.9195ZM35.455 72.9881L36.2547 46.9195H36.4843H36.7495L37.4146 72.9881C37.1098 73.0079 36.8049 73.0079 36.4843 73.0079C36.1438 73.0079 35.7994 72.9881 35.4589 72.9881H35.455ZM34.105 46.6345L28.2104 72.0578C28.8755 72.2082 29.5406 72.3428 30.2254 72.4576L34.7701 46.7691C34.5405 46.7295 34.3149 46.6939 34.105 46.6345ZM32.7749 72.8179L35.3996 46.8601C35.2293 46.8403 35.0393 46.8206 34.8691 46.7849L30.554 72.5131C31.2745 72.6477 32.0188 72.7427 32.7789 72.8179H32.7749ZM29.5406 44.2196L12.0269 63.5979C12.5772 64.0927 13.1472 64.5876 13.7371 65.0626L30.071 44.6789C29.9008 44.5284 29.7108 44.374 29.5406 44.2236V44.2196ZM15.6611 66.468L30.5896 45.0589C30.4392 44.9441 30.2848 44.8293 30.1542 44.7343L14.0102 65.2527C14.5407 65.6723 15.095 66.088 15.665 66.472L15.6611 66.468ZM29.1605 43.8396L10.5265 62.1529C10.9461 62.5726 11.3618 62.9724 11.7815 63.3722L29.4851 44.1682C29.3703 44.0534 29.2555 43.9584 29.1605 43.8435V43.8396ZM10.2969 61.9233L29.0853 43.7644C28.9507 43.6139 28.8003 43.4595 28.6657 43.3091L8.90737 60.4031C9.3468 60.9178 9.82185 61.4285 10.2969 61.9233ZM28.3054 42.8499L7.502 58.6692C7.88205 59.1838 8.28188 59.6787 8.70152 60.1537L28.6102 43.2299C28.4954 43.0953 28.4004 42.9845 28.3054 42.8499ZM19.7109 68.9185L31.7496 45.7596C31.5952 45.6844 31.4447 45.5894 31.2943 45.5142L18.0601 68.008C18.6104 68.3326 19.1448 68.6374 19.7149 68.9225L19.7109 68.9185ZM17.7909 67.8536L31.2151 45.4746C31.0251 45.3598 30.8549 45.2291 30.6649 45.1143L15.9263 66.658C16.536 67.0777 17.1416 67.4775 17.7909 67.8575V67.8536ZM23.9903 70.8029L32.9649 46.2901C32.8145 46.2347 32.6601 46.1753 32.4899 46.1198L22.2604 70.118C22.8304 70.3634 23.4005 70.5931 23.9903 70.8029ZM21.9753 70.0032L32.4146 46.0803C32.2246 45.9852 32.0148 45.8902 31.8248 45.7952L19.9959 69.0689C20.6412 69.3935 21.3063 69.6984 21.9714 69.9992L21.9753 70.0032ZM27.9095 71.9826L34.014 46.6147C33.919 46.5949 33.824 46.5593 33.7092 46.5395L26.5398 71.6223C26.9951 71.7569 27.4543 71.8678 27.9095 71.9826ZM26.235 71.5471L33.63 46.5236C33.44 46.4682 33.2499 46.4088 33.0599 46.3336L24.2952 70.9216C24.9246 71.1512 25.5699 71.3611 26.235 71.5511V71.5471ZM46.694 35.5499L72.8378 33.3251C72.913 34.0297 72.9526 34.7304 72.9724 35.4549L46.7494 36.2348C46.7296 36.0051 46.7098 35.7795 46.694 35.5499ZM72.9526 37.7747L46.7494 36.8048V36.6544C46.7494 36.5396 46.7494 36.4446 46.7494 36.3298L72.9724 35.7795C72.9724 36.0249 72.9922 36.2546 72.9922 36.504C72.9922 36.9394 72.9724 37.3591 72.9526 37.7787V37.7747ZM46.4644 34.2197L72.1173 28.6101C72.2677 29.295 72.4023 29.9997 72.5171 30.7004L46.6188 34.9204C46.5633 34.675 46.5238 34.4454 46.4683 34.2158L46.4644 34.2197ZM72.818 33.0044L46.69 35.4588C46.6702 35.3084 46.6504 35.154 46.6148 35.0036L72.5726 31.029C72.6676 31.6742 72.7428 32.3393 72.818 33.0084V33.0044ZM46.0804 33.0242L70.799 24.0694C71.0445 24.7741 71.2741 25.4589 71.4839 26.1597L46.306 33.6497C46.2308 33.4399 46.1556 33.23 46.0764 33.0202L46.0804 33.0242ZM72.054 28.2895L46.4406 34.1445C46.401 34.0099 46.3654 33.8793 46.3258 33.7447L71.5789 26.4803C71.7491 27.0702 71.9035 27.6798 72.054 28.2855V28.2895Z" fill="url(#paint0_linear_172_107)"/>
<path fill-rule="evenodd" clip-rule="evenodd" d="M46.7031 35.538L47.0634 35.4984L72.8469 33.3132C72.9222 34.0178 72.9618 34.7185 72.9815 35.443L46.7585 36.2229C46.7388 35.9933 46.719 35.7676 46.7031 35.538Z" fill="#207953"/>
<path fill-rule="evenodd" clip-rule="evenodd" d="M46.7563 36.7771L48.5259 36.8523L46.7563 36.7969V36.7771ZM72.8091 40.2014L46.7207 37.5411C46.7405 37.3313 46.7603 37.1057 46.7603 36.8959L72.9635 38.0954C72.9239 38.8 72.8883 39.5205 72.8131 40.2054L72.8091 40.2014Z" fill="#207953"/>
<path fill-rule="evenodd" clip-rule="evenodd" d="M26.6977 39.6868L25.2132 40.1421L26.6779 39.6671L26.6977 39.6868ZM26.9273 40.3519L24.8925 41.1516L2.54915 49.9361C2.28391 49.2315 2.01867 48.5308 1.78906 47.7865L26.7175 39.7819C26.773 39.9719 26.8521 40.1619 26.9273 40.3519Z" fill="#FC8C40"/>
<path fill-rule="evenodd" clip-rule="evenodd" d="M30.0436 44.6274L25.4989 50.3874L13.7493 65.0468C13.1594 64.5717 12.5893 64.0769 12.0391 63.5821L29.5527 44.2038C29.723 44.3542 29.8971 44.4888 30.0476 44.6234L30.0436 44.6274Z" fill="#FC8C40"/>
<path fill-rule="evenodd" clip-rule="evenodd" d="M64.6149 59.7856L44.7458 43.2616C44.6112 43.4318 44.4806 43.606 44.3262 43.7762L63.1898 61.3849C63.6846 60.8703 64.1597 60.32 64.6149 59.7895V59.7856Z" fill="#FC8C40"/>
<path fill-rule="evenodd" clip-rule="evenodd" d="M47.4613 71.3057L39.7812 46.9275C40.0109 46.8325 40.2167 46.7572 40.4265 46.6622L49.4763 70.6208C48.8112 70.8662 48.1462 71.0959 47.4613 71.3057Z" fill="#FC8C40"/>
<path fill-rule="evenodd" clip-rule="evenodd" d="M46.7964 38.2973L47.0419 38.3527L72.4098 43.0122C72.295 43.6971 72.1446 44.382 71.9902 45.047L46.6816 38.9624C46.7212 38.7526 46.7569 38.5269 46.7964 38.2973Z" fill="#FC8C40"/>
<path fill-rule="evenodd" clip-rule="evenodd" d="M70.8111 24.0536L46.1875 32.9727C46.2627 33.1825 46.3379 33.3924 46.3973 33.618L71.496 26.1438C71.2862 25.4392 71.0605 24.7543 70.8111 24.0536Z" fill="#FC8C40"/>
<path fill-rule="evenodd" clip-rule="evenodd" d="M43.1465 28.6735L44.1362 27.5136L60.2801 8.82019C60.8304 9.27545 61.345 9.7703 61.8597 10.2651L44.9952 27.7788L43.6651 29.1486C43.4949 28.9783 43.3207 28.8239 43.1504 28.6735H43.1465Z" fill="#FC8C40"/>
<path fill-rule="evenodd" clip-rule="evenodd" d="M38.2969 26.318L39.1322 21.6031L43.0118 0.589844C43.7521 0.724442 44.4766 0.874876 45.1971 1.0451L39.1877 25.649L38.9976 26.4684C38.768 26.413 38.5424 26.3536 38.293 26.318H38.2969Z" fill="#FC8C40"/>
<path fill-rule="evenodd" clip-rule="evenodd" d="M32.857 26.6228L31.7367 23.5429L24.0566 2.1892C24.7415 1.94376 25.4264 1.71415 26.1112 1.50433L33.5261 26.4328C33.2964 26.4882 33.0866 26.5476 32.861 26.6228H32.857Z" fill="#FC8C40"/>
<path fill-rule="evenodd" clip-rule="evenodd" d="M28.1231 29.7582L24.6631 26.9079L8.25391 13.3886C8.70917 12.8185 9.20401 12.2683 9.69886 11.7338L28.6021 29.2277C28.4516 29.3979 28.2774 29.5879 28.127 29.7621L28.1231 29.7582Z" fill="#FC8C40"/>
<path fill-rule="evenodd" clip-rule="evenodd" d="M25.633 34.8175L23.9386 34.5523L0.455078 30.7479C0.569883 30.0235 0.700523 29.3425 0.854915 28.6379L25.7636 34.1921C25.724 34.4019 25.6686 34.6117 25.629 34.8215L25.633 34.8175ZM21.9434 33.2024L25.8032 34.0773V34.1168L21.9434 33.2024Z" fill="#FC8C40"/>
<path fill-rule="evenodd" clip-rule="evenodd" d="M28.2188 72.0499L33.9432 47.3115C34.1886 47.3669 34.4182 47.4065 34.6676 47.4461L30.2377 72.4497C29.5529 72.3349 28.8878 72.2043 28.2227 72.0499H28.2188Z" fill="#FC8C40"/>
<path fill-rule="evenodd" clip-rule="evenodd" d="M33.6376 46.5118L26.2425 71.5353C25.5775 71.3453 24.9322 71.1354 24.3027 70.9058L33.0675 46.3178C33.2575 46.393 33.4475 46.4524 33.6376 46.5078V46.5118ZM27.8181 67.1608L26.5632 71.6303L26.5434 71.6105L27.8181 67.1608Z" fill="#207953"/>
<path fill-rule="evenodd" clip-rule="evenodd" d="M32.4028 46.0565L31.8525 47.3669L21.9832 69.9953C21.3182 69.6904 20.6531 69.3856 20.0078 69.065L31.8367 45.7913C32.0267 45.8863 32.2167 45.9813 32.4067 46.0565H32.4028Z" fill="#207953"/>
<path fill-rule="evenodd" clip-rule="evenodd" d="M31.2026 45.4468L29.8527 47.7469L17.7982 67.8456C17.1529 67.4656 16.5432 67.0658 15.9336 66.6461L30.6722 45.1024C30.8424 45.2172 31.0324 45.332 31.2026 45.4429V45.4468Z" fill="#207953"/>
<path fill-rule="evenodd" clip-rule="evenodd" d="M29.0939 43.7525L29.0385 43.8079L10.3095 61.9114C9.8344 61.4166 9.35935 60.902 8.91992 60.3913L28.6782 43.2972C28.8128 43.4477 28.9633 43.6021 29.0979 43.7525H29.0939Z" fill="#207953"/>
<path fill-rule="evenodd" clip-rule="evenodd" d="M28.2392 42.747L25.3889 44.9164L7.32498 58.4158C6.88952 57.8458 6.48968 57.2559 6.08984 56.6661L27.883 42.2165C27.9978 42.4065 28.1126 42.5767 28.2432 42.747H28.2392Z" fill="#207953"/>
<path fill-rule="evenodd" clip-rule="evenodd" d="M27.5135 41.6227L26.2585 42.3273L4.69504 54.4214C4.33479 53.792 4.01017 53.1467 3.68555 52.5014L27.2284 41.0526C27.3037 41.2426 27.4185 41.4327 27.5135 41.6227Z" fill="#207953"/>
<path fill-rule="evenodd" clip-rule="evenodd" d="M26.3541 38.2973L22.8189 38.8673L26.3541 38.2577V38.2973ZM26.4887 38.9624L24.8339 39.3622L1.00995 45.0272C0.83972 44.3225 0.685327 43.6021 0.554688 42.8776L26.3778 38.3725C26.4174 38.5823 26.4531 38.7723 26.4926 38.9624H26.4887Z" fill="#207953"/>
<path fill-rule="evenodd" clip-rule="evenodd" d="M26.2422 36.9829L21.1829 37.173L26.2422 36.9434V36.9829ZM26.2818 37.648L24.9319 37.8024L0.213197 40.4073C0.13798 39.7026 0.0785978 38.9821 0.0429688 38.2775L26.2462 37.078C26.2462 37.268 26.266 37.458 26.2858 37.648H26.2818Z" fill="#207953"/>
<path fill-rule="evenodd" clip-rule="evenodd" d="M26.2782 35.6528L18.3289 34.9284L26.2782 35.6132V35.6528ZM26.2386 36.3179L24.9282 36.2981L0.0195312 35.6687C0.0195312 34.964 0.0591191 34.2791 0.114542 33.5784L26.2623 35.7478C26.2623 35.9379 26.2425 36.1279 26.2425 36.3179H26.2386Z" fill="#207953"/>
<path fill-rule="evenodd" clip-rule="evenodd" d="M26.907 32.9529L23.9022 31.8128L26.9268 32.9331L26.907 32.9529ZM26.6971 33.5982L25.1572 33.1429L1.53906 25.9538C1.74888 25.2689 1.97849 24.6038 2.20414 23.9586L26.8872 33.0281C26.812 33.2182 26.7526 33.4082 26.6971 33.5982Z" fill="#207953"/>
<path fill-rule="evenodd" clip-rule="evenodd" d="M27.4594 31.7574L26.6241 31.3021L27.4792 31.7574H27.4594ZM27.1546 32.3868L20.3099 29.3623L3.14062 21.6625C3.44545 20.9974 3.77007 20.3323 4.11053 19.6672L27.4238 31.8365C27.3288 32.0266 27.2536 32.1968 27.1586 32.3868H27.1546Z" fill="#207953"/>
<path fill-rule="evenodd" clip-rule="evenodd" d="M27.7819 31.2031L23.352 28.523L5.36328 17.4543C5.74332 16.8248 6.14316 16.2191 6.56279 15.6293L28.1263 30.7083C28.0115 30.8627 27.8967 31.0329 27.7819 31.2031Z" fill="#207953"/>
<path fill-rule="evenodd" clip-rule="evenodd" d="M29.5872 29.0535L26.5271 25.7638L11.8281 9.60004C12.3428 9.12499 12.8732 8.66973 13.4235 8.21051L30.0623 28.6339C29.9119 28.7685 29.7377 28.8991 29.5872 29.0535Z" fill="#207953"/>
<path fill-rule="evenodd" clip-rule="evenodd" d="M30.5976 28.238L15.4434 6.67453C16.0332 6.27469 16.6231 5.87486 17.2327 5.49481L31.1518 27.8778C30.9618 27.9926 30.7718 28.1232 30.6016 28.238H30.5976Z" fill="#207953"/>
<path fill-rule="evenodd" clip-rule="evenodd" d="M31.7368 27.5531L29.6624 23.6735L19.4883 4.20025C20.1336 3.85583 20.7828 3.53517 21.4479 3.23035L32.3266 27.2641C32.1168 27.3393 31.9268 27.4344 31.7368 27.5492V27.5531Z" fill="#207953"/>
<path fill-rule="evenodd" clip-rule="evenodd" d="M34.3027 26.6229L32.8973 20.3284L28.7129 0.83929C29.4176 0.688857 30.1381 0.554258 30.8625 0.439453L34.9519 26.4922C34.7421 26.5318 34.5125 26.5674 34.3067 26.6268L34.3027 26.6229Z" fill="#207953"/>
<path fill-rule="evenodd" clip-rule="evenodd" d="M35.5781 26.413L35.2376 22.5888L33.373 0.130613C34.0777 0.0751899 34.7784 0.035602 35.5029 0.0158081L36.2432 26.3694C36.0334 26.3892 35.8037 26.3892 35.5781 26.409V26.413Z" fill="#207953"/>
<path fill-rule="evenodd" clip-rule="evenodd" d="M36.8867 26.3932L37.1163 20.7441L38.0664 0.0356445C38.8067 0.0752324 39.5312 0.110861 40.2715 0.186078L37.5716 26.4289C37.342 26.4091 37.1163 26.3893 36.8867 26.3893V26.3932Z" fill="#207953"/>
<path fill-rule="evenodd" clip-rule="evenodd" d="M39.5879 26.8485L39.7383 26.3734L47.8776 1.80518C48.5229 2.03479 49.1721 2.26044 49.8174 2.50984L40.2332 27.0781C40.0234 27.0028 39.7977 26.9276 39.5879 26.8485Z" fill="#207953"/>
<path fill-rule="evenodd" clip-rule="evenodd" d="M40.7872 27.3235L43.3722 21.8287L52.1014 3.49957C52.7467 3.8044 53.3761 4.12902 54.0016 4.46948L41.3929 27.6284C41.2028 27.5136 40.993 27.4186 40.7832 27.3235H40.7872Z" fill="#207953"/>
<path fill-rule="evenodd" clip-rule="evenodd" d="M41.9473 27.953L43.8119 25.0235L56.2662 5.8194C56.8759 6.21923 57.4856 6.61907 58.0517 7.05454L43.1231 27.5333L42.5332 28.333C42.3432 28.1984 42.1532 28.0678 41.9434 27.953H41.9473Z" fill="#207953"/>
<path fill-rule="evenodd" clip-rule="evenodd" d="M43.9825 29.6275L63.5666 12.0189C64.0219 12.5137 64.4613 13.0283 64.8769 13.5588L44.4338 30.1422C44.2992 29.972 44.1487 29.7978 43.9785 29.6275H43.9825Z" fill="#207953"/>
<path fill-rule="evenodd" clip-rule="evenodd" d="M44.8184 30.6133L47.5737 28.6735L66.3977 15.5699C66.8173 16.1597 67.2172 16.7694 67.5972 17.3751L45.3686 31.1042L45.1984 31.1992C45.0836 31.0091 44.953 30.7993 44.8184 30.6093V30.6133Z" fill="#207953"/>
<path fill-rule="evenodd" clip-rule="evenodd" d="M45.5234 31.7376L47.1782 30.8627L68.8763 19.6435C69.2168 20.2888 69.5216 20.938 69.8264 21.6031L47.198 31.7574L45.8283 32.367C45.7333 32.1572 45.6382 31.9474 45.5234 31.7376Z" fill="#207953"/>
<path fill-rule="evenodd" clip-rule="evenodd" d="M46.4727 34.2277L72.1256 28.5983C72.276 29.2831 72.4106 29.9878 72.5254 30.6885L46.627 34.9086C46.5716 34.679 46.532 34.4533 46.4766 34.2237L46.4727 34.2277Z" fill="#207953"/>
<path fill-rule="evenodd" clip-rule="evenodd" d="M46.3778 39.477L47.0627 39.667L71.4013 47.1966C71.1915 47.8815 70.9618 48.5664 70.7164 49.2314L46.168 40.1025C46.2432 39.8927 46.3026 39.6828 46.3778 39.473V39.477Z" fill="#207953"/>
<path fill-rule="evenodd" clip-rule="evenodd" d="M45.9217 40.7122L46.4363 40.9418L69.7496 51.5711C69.4448 52.2164 69.14 52.8656 68.7995 53.4911L45.6406 41.302C45.7554 41.112 45.8504 40.922 45.9257 40.7122H45.9217Z" fill="#207953"/>
<path fill-rule="evenodd" clip-rule="evenodd" d="M45.3114 41.9077L67.4846 55.7714C67.1243 56.381 66.7245 56.9709 66.3049 57.5568L44.9512 42.458C45.0858 42.2878 45.1966 42.0977 45.3114 41.9077Z" fill="#207953"/>
<path fill-rule="evenodd" clip-rule="evenodd" d="M43.6782 43.9821L44.9885 45.3519L61.6669 62.9209C61.1364 63.4356 60.5822 63.9106 60.0319 64.3857L43.2031 44.4017C43.3734 44.2672 43.5277 44.1365 43.6782 43.9821Z" fill="#207953"/>
<path fill-rule="evenodd" clip-rule="evenodd" d="M38.8485 46.6464L44.5531 72.1093C43.8682 72.2597 43.1833 72.3943 42.4787 72.5091L38.1992 46.7612C38.409 46.7414 38.6347 46.686 38.8445 46.6464H38.8485Z" fill="#207953"/>
<path fill-rule="evenodd" clip-rule="evenodd" d="M42.6709 44.857L58.0349 65.9652C57.4649 66.3849 56.875 66.7847 56.2852 67.1648L42.1562 45.2014C42.3265 45.0866 42.5007 44.9718 42.6709 44.857Z" fill="#207953"/>
<path fill-rule="evenodd" clip-rule="evenodd" d="M37.517 46.8522L39.8922 72.8258C39.1876 72.901 38.4671 72.9406 37.7426 72.9604L36.8281 46.9077C37.0577 46.8879 37.2834 46.8681 37.513 46.8522H37.517Z" fill="#207953"/>
<path fill-rule="evenodd" clip-rule="evenodd" d="M41.5474 45.5775L43.5624 49.1919L54.1363 68.4553C53.491 68.8156 52.8418 69.1402 52.1767 69.4648L41.0129 45.8665C41.1832 45.7715 41.3732 45.6765 41.5434 45.5815L41.5474 45.5775Z" fill="#267A59"/>
<path fill-rule="evenodd" clip-rule="evenodd" d="M36.1678 46.9116L35.1425 72.9644C34.4576 72.9446 33.7728 72.909 33.0879 72.8298L35.5027 46.8562C35.7324 46.8958 35.9382 46.8958 36.1678 46.9116Z" fill="#207953"/>
<path fill-rule="evenodd" clip-rule="evenodd" d="M13.4282 8.21052L30.067 28.6339L30.2966 28.8991C30.1264 29.0337 29.9522 29.1644 29.8017 29.3188L29.5721 29.0733L28.3568 27.7234L26.5318 25.7638L11.8328 9.60005L11.8526 9.58026L11.8724 9.56047L11.8922 9.54067L11.9318 9.52088L11.9516 9.48129L11.9714 9.4615L12.011 9.4417L12.0307 9.42191L12.0505 9.40211L12.0901 9.38232L12.1099 9.34273L12.1297 9.32294L12.1495 9.30315L12.1891 9.28335L12.2089 9.26356L12.2287 9.24376L12.2683 9.20418L12.2881 9.18438L12.3079 9.16459L12.3475 9.14479L12.3672 9.125L12.387 9.10521L12.4266 9.06562L12.4464 9.04582L12.4662 9.02603L12.486 9.00624L12.5256 8.98644L12.5454 8.96665L12.5652 8.94685L12.6048 8.90727L12.6246 8.88747L12.6444 8.86768L12.6839 8.84789L12.7037 8.82809L12.7235 8.8083L12.7631 8.7885L12.7829 8.74892L12.8027 8.72912L12.8423 8.70933L12.8621 8.68953L12.8819 8.66974L12.9215 8.64995L12.9413 8.63015L12.9611 8.59056L13.0007 8.57077L13.0204 8.55098L13.0402 8.53118L13.0798 8.51139L13.0996 8.49159L13.1194 8.4718L13.159 8.45201L13.1788 8.41242L13.1986 8.39262L13.2382 8.37283L13.258 8.35304L13.2778 8.33324L13.3174 8.31345L13.3371 8.29365L13.3767 8.27386L13.3965 8.23427L13.4163 8.21448L13.4559 8.19468L13.4757 8.17489L13.4955 8.1551L13.4282 8.21052ZM37.4462 8.21052L36.7613 26.7139H36.496H36.3456L35.9854 8.19468L35.8349 0C36.0645 0 36.2902 0 36.5 0C36.9196 0 37.3353 0.0197939 37.7549 0.0197939L37.4501 8.21448L37.4462 8.21052ZM35.5816 26.7495L35.5618 26.4091L34.8769 18.2144L33.3765 0.13064H33.4161H33.4557H33.4755H33.5151L33.5547 0.110846H33.5943H33.614H33.6536H33.6932H33.713H33.7328H33.7526L33.7922 0.0910521H33.8318H33.8516H33.8912H33.9307H33.9703H33.9901H34.0297L34.0693 0.0712581H34.1089H34.1287H34.1683H34.2079H34.2475H34.2672H34.3068H34.3464L34.386 0.0514642H34.4058H34.4454H34.485H34.5246H34.5444H34.5839H34.6235H34.6631H34.6829L34.7225 0.0316703H34.7621H34.8017H34.8215H34.8611H34.9007H34.9402H34.96H34.9996H35.0392H35.0788H35.0986H35.1382L35.1778 0.0118764H35.2174H35.2371H35.2767H35.3163H35.3559H35.3757H35.4153H35.4549H35.4945H35.5143H35.5539H35.5934L36.3337 26.3655L36.3535 26.7099C36.1239 26.7297 35.8983 26.7297 35.6687 26.7495H35.5816ZM36.8563 26.7099V26.3695L37.1215 20.7401L38.0716 0.0316703C38.8119 0.0712581 39.5364 0.106887 40.2767 0.182104L37.5768 26.4249L37.5372 26.7693C37.3076 26.7495 37.0819 26.7297 36.8523 26.7139L36.8563 26.7099ZM39.6908 8.36095L40.6053 0.221692C41.3099 0.296909 42.0106 0.39192 42.7153 0.526518L41.2901 8.59056L38.0954 26.8445C37.945 26.8247 37.7906 26.7891 37.6401 26.7891L39.6947 8.36491L39.6908 8.36095ZM38.1706 26.8643L38.2458 26.5239H38.226L39.1405 21.5991L43.0201 0.5859H43.0597H43.0993L43.1389 0.605694H43.1785H43.1983L43.2379 0.625488H43.2774H43.317L43.3566 0.645282H43.3764H43.416L43.4556 0.665076H43.4952H43.5348L43.5546 0.68487H43.5941H43.6337L43.6733 0.704664H43.6931H43.7327L43.7723 0.724458H43.8119L43.8515 0.744252H43.8713H43.9108L43.9504 0.764046H43.99H44.0296L44.0494 0.783839H44.089L44.1286 0.803633H44.1682H44.2078L44.2276 0.823427H44.2671H44.3067L44.3463 0.843221H44.3661L44.4057 0.863015H44.4453H44.4849L44.5245 0.882809H44.5443L44.5838 0.902603H44.6234H44.663L44.6828 0.922397H44.7224L44.762 0.942191H44.8016H44.8412L44.861 0.961985H44.9005L44.9401 0.981779H44.9797L44.9995 1.00157H45.0391H45.0787L45.1183 1.02137H45.1579L45.1777 1.04116H45.2172L45.2568 1.06095H45.2964L39.287 25.6846L39.0415 26.6941L38.9663 27.0187C38.7367 26.9633 38.5111 26.9237 38.2617 26.8841L38.1706 26.8643ZM43.4952 9.06562L45.5102 1.11638C46.2149 1.28661 46.8997 1.49642 47.5846 1.70624L45.0747 9.50108L39.4097 27.1493C39.2593 27.0939 39.1049 27.0543 38.9703 27.0147L43.4952 9.06562ZM39.481 27.1691L39.5958 26.8445L39.7304 26.3893L39.7502 26.3695L47.8894 1.80125L47.929 1.82104H47.9488L47.9884 1.84083H48.0082L48.0478 1.86063L48.0874 1.88042H48.1072L48.1467 1.90022H48.1665L48.2061 1.92001H48.2457L48.2655 1.9398H48.3051L48.3447 1.9596H48.3645L48.4041 1.97939L48.4239 1.99919H48.4635L48.503 2.01898H48.5228L48.5624 2.03877H48.5822L48.6218 2.05857H48.6614L48.6812 2.07836L48.7208 2.09816H48.7406L48.7802 2.11795H48.8197L48.8395 2.13774H48.8791L48.8989 2.15754L48.9385 2.17733H48.9781L48.9979 2.19713H49.0375L49.0573 2.21692H49.0969L49.1166 2.23671L49.1562 2.25651H49.1958L49.2156 2.2763H49.2552L49.275 2.2961H49.3146V2.31589H49.3542L49.374 2.33568H49.4136L49.4334 2.35548H49.4729L49.4927 2.37527L49.5323 2.39507H49.5719L49.5917 2.41486H49.6313L49.6511 2.43465L49.6907 2.45445H49.7303L49.7501 2.47424H49.7896V2.49403H49.8094L49.849 2.51383H49.8688L49.9084 2.53362L40.3242 27.1018L40.2094 27.4265C39.9996 27.3512 39.7898 27.276 39.5641 27.1969L39.481 27.1691ZM48.3605 10.7798L40.5459 27.569C40.4311 27.5294 40.3163 27.474 40.2015 27.4344L47.0858 10.2255L50.1301 2.62072C50.7002 2.85033 51.2504 3.09577 51.8245 3.36101L48.3645 10.7758L48.3605 10.7798ZM40.6211 27.6086L40.7715 27.3037L43.3566 21.8644L43.3764 21.8248L52.1055 3.49561L52.1253 3.5154H52.1649L52.2045 3.53519L52.2243 3.55499L52.2639 3.57478H52.2837L52.3233 3.59458L52.3628 3.61437L52.3826 3.63416H52.4222L52.442 3.65396L52.4816 3.67375L52.5014 3.69355L52.541 3.71334H52.5806L52.6004 3.73313L52.64 3.75293L52.6598 3.77272H52.6993L52.7389 3.79252L52.7587 3.81231L52.7983 3.8321L52.8181 3.8519H52.8577L52.8775 3.87169L52.9171 3.89149L52.9567 3.91128L52.9765 3.93107H53.0161L53.0358 3.95087L53.0754 3.97066L53.0952 3.99046H53.1348L53.1546 4.01025H53.1744L53.1942 4.03004L53.2338 4.04984L53.2536 4.06963H53.2932L53.313 4.08943L53.3525 4.10922L53.3723 4.12901L53.4119 4.14881L53.4515 4.1686H53.4713L53.5109 4.18839L53.5307 4.20819L53.5703 4.22798L53.5901 4.24778H53.6297L53.6495 4.26757L53.689 4.28736L53.7286 4.30716L53.7484 4.32695L53.788 4.34675H53.8078L53.8474 4.36654L53.8672 4.38633L53.9068 4.40613L53.9266 4.42592L53.9662 4.44572H53.986L54.0255 4.46551L54.0453 4.4853L54.0849 4.5051L41.4762 27.664L41.3258 27.9688C41.1159 27.854 40.9061 27.7392 40.6963 27.6442L40.6211 27.6086ZM51.6107 12.5493L41.686 28.1786C41.5514 28.1034 41.4406 28.0282 41.3258 27.9688L41.496 27.664L54.2947 4.61594C54.8648 4.94056 55.4547 5.28102 56.0049 5.64127L51.6107 12.5454V12.5493ZM41.7414 28.2182L41.9315 27.9332L43.796 25.0433L56.2702 5.81941L56.3098 5.83921L56.3296 5.859L56.3691 5.8788L56.3889 5.89859L56.4285 5.91838L56.4483 5.93818L56.4879 5.95797L56.5077 5.97777L56.5473 5.99756L56.5671 6.01735L56.6067 6.03715L56.6265 6.05694L56.666 6.07674L56.6858 6.09653L56.7254 6.11632L56.7452 6.13612L56.7848 6.15591L56.8046 6.1757L56.8442 6.1955L56.864 6.21529L56.9036 6.23509L56.9234 6.25488L56.963 6.27467L56.9827 6.29447L57.0025 6.31426L57.0421 6.33406L57.0619 6.35385L57.1015 6.37364L57.1213 6.39344L57.1609 6.41323L57.1807 6.43303L57.2203 6.45282L57.2401 6.47261L57.2797 6.49241L57.2995 6.5122L57.339 6.532L57.3588 6.55179L57.3984 6.57158L57.4182 6.59138L57.438 6.61117L57.4776 6.63097L57.4974 6.65076L57.537 6.67055L57.5568 6.69035L57.5964 6.71014L57.6162 6.72993L57.6557 6.74973L57.6755 6.76952L57.6953 6.78932L57.7349 6.80911L57.7547 6.8289L57.7943 6.8487L57.8141 6.86849L57.8537 6.88829L57.8735 6.90808L57.9131 6.92787L57.9329 6.94767L57.9527 6.96746L57.9922 6.98726L58.012 7.00705L58.0516 7.04664L58.0714 7.06643L58.111 7.08623L58.1308 7.10602L53.3209 13.7053L42.4065 28.6695C42.2165 28.5349 42.0265 28.4043 41.8167 28.2697L41.7414 28.2182ZM54.75 14.8296H54.7698L42.7707 28.9585C42.6559 28.8635 42.5411 28.7685 42.4105 28.6735L42.6203 28.3884L58.3287 7.24458C58.9186 7.684 59.4887 8.13926 60.0389 8.61432L54.754 14.8336L54.75 14.8296ZM43.7406 29.8532L44.0059 29.6236H43.9861L63.5702 12.0149L63.59 12.0347L63.6098 12.0743L63.6296 12.0941L63.6493 12.1139L63.6889 12.1337L63.7087 12.1535L63.7285 12.1931L63.7483 12.2129L63.7681 12.2326L63.7879 12.2524L63.8077 12.292L63.8275 12.3118L63.8473 12.3316L63.8671 12.3514L63.9067 12.391L63.9265 12.4108L63.9463 12.4306L63.9661 12.4504L63.9858 12.49L64.0056 12.5098L64.0254 12.5296L64.0452 12.5493L64.0848 12.6048L64.1046 12.6246L64.1442 12.6444L64.164 12.6839L64.1838 12.7037L64.2036 12.7235L64.2234 12.7433L64.2432 12.7829L64.263 12.8027L64.2828 12.8225L64.3025 12.8423L64.3223 12.8819L64.3421 12.9017L64.3619 12.9215L64.3817 12.9611L64.4015 12.9809L64.4411 13.0007L64.4609 13.0204L64.4807 13.06L64.5005 13.0798L64.5203 13.0996L64.5401 13.1194L64.5599 13.159L64.5797 13.1788L64.5995 13.1986L64.6192 13.2184L64.639 13.258L64.6588 13.2778L64.6786 13.2976L64.6984 13.3371L64.7182 13.3569L64.738 13.3767L64.7776 13.3965L64.7974 13.4361L64.8172 13.4559L64.837 13.4757L64.8568 13.5153L64.8766 13.5351L64.8964 13.5549L64.9162 13.5747L64.936 13.6143L58.6059 18.7488L44.2315 30.4233C44.0969 30.253 43.9465 30.0788 43.796 29.9086L43.7406 29.8532ZM59.5797 20.0235L44.4809 30.7281C44.4057 30.6331 44.3107 30.5183 44.2355 30.4233L44.5007 30.2134L65.0943 13.8043C65.4743 14.2991 65.8544 14.794 66.2146 15.3047L59.5797 20.0196V20.0235ZM46.3811 37.5372L64.8053 39.4018L72.81 40.2015C72.8852 39.5166 72.9248 38.7961 72.9604 38.0914L46.7572 36.8919L46.4128 36.8721C46.4128 37.1017 46.393 37.3274 46.3732 37.5372H46.3811ZM46.3059 38.1271L64.5599 41.3218L72.4695 42.6915C72.5843 41.9869 72.6991 41.2664 72.7744 40.5221L46.7216 37.652V37.6718L46.3811 37.6322C46.3613 37.8024 46.3415 37.9727 46.3059 38.1271ZM39.5364 46.0961L45.0906 63.78L47.4658 71.3096H47.5054L47.5252 71.2898H47.545H47.5648L47.6044 71.27H47.6242H47.644L47.6638 71.2502H47.7034L47.7232 71.2304H47.743H47.7627L47.8023 71.2106H47.8221L47.8617 71.1908L47.9013 71.171H47.9211L47.9607 71.1513H48.0003L48.0201 71.1315H48.0597L48.0992 71.1117H48.119L48.1586 71.0919H48.1982L48.218 71.0721L48.2576 71.0523H48.2972L48.317 71.0325H48.3566L48.3961 71.0127H48.4159L48.4555 70.9929L48.4951 70.9731H48.5149L48.5545 70.9533H48.5743L48.6139 70.9335H48.6535L48.6733 70.9137L48.7129 70.8939H48.7524L48.7722 70.8741H48.8118L48.8514 70.8543L48.8712 70.8345H48.9108L48.9504 70.8148H48.9702L49.0098 70.795H49.0296L49.0691 70.7752L49.1087 70.7554H49.1285L49.1681 70.7356L49.2077 70.7158H49.2275L49.2671 70.696H49.3067L49.3265 70.6762L49.3661 70.6564H49.3858L49.4254 70.6366H49.465L49.4848 70.6168L49.5244 70.597H49.564L40.5142 46.6384L40.3242 46.1832L40.2094 45.8586C40.0194 45.9338 39.8095 46.009 39.6195 46.0684L39.5364 46.0961ZM40.2015 45.8507L46.9156 63.1347L49.7698 70.5139C50.4903 70.2289 51.195 69.924 51.8997 69.5994L41.9354 48.0913L41.9552 48.1309L40.9299 45.9061L40.7953 45.6012C40.6053 45.6963 40.3954 45.7715 40.2054 45.8467L40.2015 45.8507ZM40.8665 45.5656L48.796 62.2994L52.1807 69.4688L52.2203 69.449L52.2599 69.4292L52.2797 69.4094H52.3193L52.3391 69.3896L52.3787 69.3698L52.4183 69.35L52.4381 69.3302H52.4777L52.5172 69.3104L52.537 69.2906L52.5766 69.2708H52.5964L52.636 69.251L52.6756 69.2312L52.6954 69.2114L52.735 69.1917H52.7746L52.7944 69.1719L52.8339 69.1521L52.8537 69.1323L52.8933 69.1125L52.9329 69.0927H52.9527L52.9923 69.0729L53.0121 69.0531L53.0517 69.0333L53.0913 69.0135H53.1111L53.1507 68.9937L53.1704 68.9739H53.1902L53.21 68.9541L53.2496 68.9343L53.2694 68.9145H53.309L53.3486 68.8947L53.3684 68.8749L53.408 68.8552L53.4278 68.8354L53.4674 68.8156H53.4871H53.5069L53.5267 68.7958L53.5663 68.776L53.5861 68.7562L53.6257 68.7364L53.6455 68.7166H53.6851L53.7247 68.6968L53.7445 68.677L53.7841 68.6572L53.8038 68.6374L53.8434 68.6176L53.883 68.5978H53.9028L53.9424 68.578L53.9622 68.5582L54.0018 68.5385L54.0414 68.5187L54.0612 68.4989L54.1008 68.4791H54.1205L54.1601 68.4593L54.1799 68.4395L54.2195 68.4197L41.6504 45.5458L41.4802 45.241C41.3099 45.336 41.1199 45.431 40.9497 45.526L40.8665 45.5656ZM42.4619 44.5759L42.6717 44.861L58.0358 65.9692L57.9962 65.989L57.9764 66.0088L57.9368 66.0286L57.917 66.0484L57.8972 66.0682L57.8576 66.088L57.8378 66.1078L57.7983 66.1275L57.7785 66.1473L57.7587 66.1671H57.7389L57.7191 66.1869L57.6993 66.2067L57.6597 66.2265L57.6399 66.2463L57.6003 66.2661L57.5805 66.2859L57.5607 66.3057L57.5211 66.3255L57.5014 66.3453L57.4618 66.3651L57.442 66.3849L57.4222 66.4047L57.3826 66.4245L57.3628 66.4443L57.3232 66.464L57.3034 66.4838L57.2836 66.5036H57.2638L57.244 66.5234L57.2242 66.5432L57.1847 66.563L57.1649 66.5828L57.1253 66.6026L57.1055 66.6224L57.0857 66.6422L57.0461 66.662L57.0263 66.6818L56.9867 66.7016L56.9669 66.7214L56.9273 66.7412L56.9075 66.761L56.8877 66.7807L56.8482 66.8005L56.8284 66.8203L56.7888 66.8401L56.769 66.8599L56.7294 66.8797L56.7096 66.8995L56.67 66.9193L56.6502 66.9391L56.6304 66.9589L56.5908 66.9787L56.571 66.9985L56.5314 67.0183L56.5117 67.0381L56.4721 67.0579H56.4523L56.4325 67.0777H56.4127L56.3929 67.0975L56.3731 67.1172L56.3335 67.137L56.3137 67.1568L56.2741 67.1766L56.2543 67.1964L56.2148 67.2162L51.9353 60.5417H51.9155L41.8958 44.9678C42.0661 44.8728 42.2402 44.7382 42.3907 44.6234L42.4619 44.5759ZM50.5418 61.3849L41.4722 45.241C41.6227 45.146 41.7573 45.0708 41.9077 44.9758L42.0779 45.2608L56.0168 67.3389C55.4863 67.6794 54.9519 68.004 54.4214 68.3088L50.5418 61.3889V61.3849ZM42.9924 44.1563L54.9163 58.3208L60.031 64.3857L60.0508 64.3659L60.0904 64.3461L60.1102 64.3263L60.13 64.3065L60.1696 64.2669L60.1894 64.2471L60.229 64.2273L60.2487 64.2075L60.2685 64.1877L60.3081 64.168L60.3279 64.1284L60.3477 64.1086L60.3873 64.0888L60.4071 64.069L60.4467 64.0492L60.4665 64.0096L60.4863 63.9898L60.5259 63.97L60.5457 63.9502L60.5655 63.9304L60.605 63.9106L60.6248 63.871L60.6446 63.8512L60.6842 63.8315L60.704 63.8117L60.7238 63.7919H60.7436L60.7634 63.7523L60.7832 63.7325L60.8228 63.7127L60.8426 63.6929L60.8624 63.6731L60.902 63.6335L60.9217 63.6137L60.9415 63.5939L60.9811 63.5741L61.0009 63.5543L61.0207 63.5148L61.0603 63.495L61.0801 63.4752L61.0999 63.4554L61.1395 63.4158L61.1593 63.396L61.1791 63.3762L61.2187 63.3564L61.2384 63.3366L61.2582 63.297L61.2978 63.2772L61.3176 63.2574L61.3374 63.2376L61.377 63.198L61.3968 63.1783L61.4166 63.1585L61.4562 63.1387L61.476 63.1189L61.4958 63.0793L61.5354 63.0595L61.5551 63.0397L61.5749 63.0199L61.6145 62.9803L61.6343 62.9605L61.6541 62.9407L61.6739 62.9209L61.7135 62.8813L61.7333 62.8616L52.1134 52.7073L45.0589 45.2925L45.0391 45.2529L43.7644 43.9029H43.7446L43.515 43.6575C43.3645 43.8079 43.2101 43.9623 43.0597 44.0929L42.9924 44.1563ZM42.5371 44.5165L53.5663 59.4055L58.2812 65.7752C58.7959 65.3952 59.2907 65.0151 59.7816 64.5955L43.1428 44.477L42.9132 44.2117C42.7786 44.3265 42.6678 44.4215 42.5332 44.5165H42.5371ZM43.8317 43.317L57.3707 55.9614L63.1901 61.381L63.2099 61.3612L63.2495 61.3216L63.2693 61.3018L63.2891 61.282L63.3089 61.2622L63.3287 61.2226L63.3683 61.2028L63.3881 61.183L63.4079 61.1434L63.4277 61.1236L63.4474 61.1039L63.487 61.0841L63.5068 61.0445L63.5266 61.0247L63.5464 61.0049L63.5662 60.9653L63.586 60.9455L63.6256 60.9257L63.6454 60.8861L63.6652 60.8663L63.685 60.8465L63.7048 60.8069L63.7246 60.7871H63.7444L63.7642 60.7674L63.7839 60.7476L63.8037 60.708L63.8235 60.6882L63.8433 60.6684L63.8829 60.6288L63.9027 60.609L63.9225 60.5892L63.9423 60.5496L63.9621 60.5298L63.9819 60.51L64.0017 60.4704H64.0215L64.0413 60.4507L64.0611 60.4309L64.0809 60.3913L64.1006 60.3715L64.1204 60.3517L64.1402 60.3121L64.1798 60.2923L64.1996 60.2725L64.2194 60.2329L64.2392 60.2131L64.259 60.1933L64.2788 60.1537L64.2986 60.134L64.3382 60.1142L64.358 60.0746L64.3778 60.0548L64.3976 60.035L64.4174 59.9954L64.4371 59.9756L64.4569 59.9558L64.4965 59.9162L64.5163 59.8964L64.5361 59.8766L64.5559 59.837L64.5757 59.8172L64.5955 59.7975L64.6153 59.7579L64.6549 59.7381L64.6747 59.7183L51.7809 48.9939L44.8016 43.1943L44.572 42.9845V43.0043L44.3067 42.7747C44.1721 42.9449 44.0415 43.0993 43.8871 43.2497L43.8317 43.317ZM43.507 43.6614L56.381 56.9907L61.8956 62.6953C62.2559 62.3548 62.6201 61.9906 62.9803 61.6106L44.0217 43.6219L43.7762 43.3922C43.701 43.4873 43.606 43.5625 43.511 43.6575L43.507 43.6614ZM44.667 42.2719L59.8014 52.9567L66.3057 57.5568L66.3255 57.5172L66.3453 57.4974L66.3651 57.4776L66.3849 57.438L66.4047 57.4182L66.4245 57.3786L66.4443 57.3588L66.464 57.3193L66.4838 57.2995L66.5036 57.2599L66.5234 57.2401L66.5432 57.2203L66.563 57.1807L66.5828 57.1609L66.6026 57.1213L66.6224 57.1015L66.6422 57.0619L66.662 57.0421L66.6818 57.0026L66.7016 56.9828L66.7214 56.9432L66.7412 56.9234L66.761 56.9036L66.7807 56.864L66.8005 56.8442L66.8203 56.8046L66.8401 56.7848L66.8599 56.7452L66.8797 56.7254L66.8995 56.6858L66.9193 56.666L66.9391 56.6265L66.9589 56.6067L66.9787 56.5671L66.9985 56.5473L67.0183 56.5077L67.0381 56.4879L67.0579 56.4483L67.0777 56.4285L67.0975 56.4087L67.1172 56.3691L67.137 56.3494L67.1568 56.3098L67.1766 56.29V56.2504H67.1964V56.2306L67.2162 56.191L67.236 56.1712L67.2558 56.1316L67.2756 56.1118L67.2954 56.0722L67.3152 56.0524L67.335 56.0129L67.3548 55.9931L67.3746 55.9535L67.3944 55.9337L67.4142 55.8941L67.4339 55.8743L67.4537 55.8347L67.4735 55.8149L67.4933 55.7753L67.5131 55.7555L67.5329 55.7159V55.6962L45.3598 41.8325L45.0549 41.6623C44.9599 41.8325 44.8451 42.0225 44.7105 42.1927L44.667 42.2719ZM44.3067 42.7865L58.6454 54.5006V54.4808L64.8053 59.5203C65.2606 58.9701 65.7 58.4 66.1157 57.826L44.8966 42.5371L44.6313 42.3471C44.5165 42.4817 44.4215 42.6322 44.3067 42.7826V42.7865ZM45.3321 41.1516L61.7214 49.7659H61.7412L68.7958 53.4911L68.8156 53.4515L68.8354 53.4317L68.8551 53.3921L68.8749 53.3526L68.8947 53.3328V53.2932L68.9145 53.2734L68.9343 53.2338L68.9541 53.214L68.9739 53.1744V53.1546L68.9937 53.115L69.0135 53.0754L69.0333 53.0556L69.0531 53.0161V52.9963L69.0729 52.9567L69.0927 52.9369L69.1125 52.8973V52.8775L69.1323 52.8379L69.1521 52.7983L69.1719 52.7785L69.1917 52.7389V52.7191L69.2114 52.6796L69.2312 52.6598L69.251 52.6202L69.2708 52.5806V52.5608L69.2906 52.5212L69.3104 52.5014L69.3302 52.4618V52.442L69.35 52.4024L69.3698 52.3629L69.3896 52.3431V52.3035L69.4094 52.2837L69.4292 52.2441L69.449 52.2243L69.4688 52.1847V52.1451L69.4886 52.1253L69.5084 52.0857L69.5281 52.0659V52.0264L69.5479 51.9868L69.5677 51.967L69.5875 51.9274V51.9076L69.6073 51.868L69.6271 51.8482L69.6469 51.8086V51.769L69.6667 51.7492L69.6865 51.7097V51.6899L69.7063 51.6503L69.7261 51.6107L69.7459 51.5909V51.5513L69.7657 51.5315L69.7855 51.4919L45.9615 40.633L45.6567 40.4984C45.5617 40.6884 45.4864 40.8784 45.3716 41.0684L45.3321 41.1516ZM45.0668 41.6662L60.8505 51.3257H60.8703L67.6596 55.4903C68.0198 54.94 68.3445 54.3502 68.6691 53.7801L45.6052 41.401L45.3004 41.2307C45.2252 41.3812 45.1499 41.5158 45.0708 41.6662H45.0668ZM46.302 38.226L46.6266 38.2815L72.4101 43.0162V43.0557L72.3904 43.0953V43.1151V43.1547V43.1943L72.3706 43.2141V43.2537V43.2933L72.3508 43.3131V43.3527V43.3922L72.331 43.412V43.4516V43.4912L72.3112 43.511V43.5506V43.5902L72.2914 43.61V43.6496V43.6892L72.2716 43.7089V43.7485V43.7881L72.2518 43.8079V43.8277V43.8475V43.8871L72.232 43.9069V43.9267V43.9465V43.9861L72.2122 44.0059V44.0257V44.0454V44.085L72.1924 44.1246V44.1444V44.184L72.1726 44.2236V44.2434L72.1528 44.283V44.3226V44.3424L72.133 44.3819V44.4215V44.4413L72.1132 44.4809V44.5205V44.5403L72.0934 44.5799V44.5997L72.0736 44.6393V44.6789V44.6986L72.0538 44.7382V44.7778V44.7976L72.034 44.8372V44.8768L72.0143 44.8966V44.9362V44.9758L71.9945 44.9956V45.0351L71.9747 45.0747V45.0945V45.1341L64.16 43.2497V43.2695L46.1515 38.9347C46.2069 38.7248 46.2465 38.515 46.2861 38.3052L46.302 38.226ZM63.8156 44.5957L46.0763 39.2909C46.0961 39.1761 46.1317 39.0613 46.1515 38.9505L46.4959 39.0257L71.9193 45.3756C71.7847 45.8902 71.654 46.3851 71.4996 46.8958L63.8196 44.5957H63.8156ZM45.8467 39.9956L63.2099 46.4405L70.7197 49.2354V49.1958L70.7395 49.1562L70.7593 49.1364V49.0969L70.7791 49.0573V49.0375L70.7989 48.9979L70.8187 48.9583V48.9385L70.8385 48.8989V48.8593L70.8583 48.8395L70.8781 48.7999V48.7604L70.8979 48.7406V48.701L70.9177 48.6812V48.6416L70.9375 48.602L70.9573 48.5822V48.5426L70.9771 48.503V48.4832L70.9969 48.4437L71.0166 48.4041V48.3843L71.0364 48.3447V48.3051L71.0562 48.2853V48.2457L71.076 48.2061V48.1863L71.0958 48.1467L71.1156 48.1072V48.0874L71.1354 48.0478V48.0082L71.1552 47.9884V47.9488L71.175 47.9092L71.1948 47.8894V47.8498L71.2146 47.8102V47.7905L71.2344 47.7509V47.7113L71.2542 47.6915V47.6519L71.274 47.6123V47.5925L71.2938 47.5529V47.5133L71.3136 47.4935L71.3333 47.454V47.4144L71.3531 47.3946V47.355L71.3729 47.3154V47.2956L71.3927 47.256V47.2164L71.4125 47.1966V47.1768V47.157L71.4323 47.1175L50.6883 40.7082L46.4088 39.378V39.3978L46.0644 39.283C46.009 39.4928 45.9496 39.7027 45.8744 39.9125L45.8467 39.9956ZM45.6567 40.4905L62.5607 48.0399L62.5805 48.0201L69.8805 51.2702C70.1259 50.7002 70.3753 50.1301 70.6049 49.5204L46.1317 40.1856V40.2054L45.8071 40.0708C45.7675 40.2252 45.7121 40.3559 45.6567 40.4905ZM45.5221 32.5214L62.4261 24.9324L69.8211 21.6031L69.8013 21.5635L69.7815 21.5239V21.5041L69.7617 21.4645L69.7419 21.4447L69.7221 21.4052V21.3656L69.7023 21.3458L69.6825 21.3062V21.2666L69.6627 21.2468L69.643 21.2072L69.6232 21.1874V21.1478L69.6034 21.1082L69.5836 21.0884L69.5638 21.0489V21.0291L69.544 20.9895L69.5242 20.9499L69.5044 20.9301L69.4846 20.8905V20.8509L69.4648 20.8311L69.445 20.7915L69.4252 20.7717V20.7322L69.4054 20.6926L69.3856 20.6728L69.3658 20.6332V20.6134L69.346 20.5738L69.3262 20.5342L69.3064 20.5144L69.2867 20.4748V20.455L69.2669 20.4155L69.2471 20.3759L69.2273 20.3561V20.3165L69.2075 20.2967L69.1877 20.2571L69.1679 20.2175L69.1481 20.1977V20.1581L69.1283 20.1383L69.1085 20.0988L69.0887 20.079V20.0592L69.0689 20.0394V19.9998L69.0491 19.98L69.0293 19.9404L69.0095 19.9206L68.9897 19.881V19.8414L68.97 19.8216L68.9502 19.7821L68.9304 19.7623L68.9106 19.7227L68.8908 19.6831V19.6633L68.871 19.6237L68.8512 19.6039L68.8314 19.5643L45.4627 31.6386L45.4825 31.6584L45.1777 31.8128C45.2925 32.0226 45.3875 32.2324 45.4825 32.4383L45.5221 32.5214ZM45.7517 33.0519L63.111 26.5872L70.6999 23.7725C70.4703 23.1272 70.2249 22.5176 69.9597 21.8881L45.8665 32.462L45.5617 32.5966C45.6171 32.751 45.6963 32.9015 45.7517 33.0519ZM44.9164 31.3971L60.6803 21.6625L67.6002 17.383L67.5804 17.3632L67.5606 17.3236L67.5408 17.3039L67.521 17.2643L67.5012 17.2445L67.4815 17.2049L67.4617 17.1851L67.4419 17.1455L67.4221 17.1257L67.4023 17.0861L67.3825 17.0663L67.3627 17.0267L67.3429 17.0069L67.3231 16.9674V16.9476L67.3033 16.908L67.2835 16.8882L67.2637 16.8486L67.2439 16.8288L67.2241 16.7892L67.2043 16.7694L67.1845 16.7298L67.1647 16.71L67.145 16.6704L67.1252 16.6507L67.1054 16.6111L67.0856 16.5913L67.0658 16.5517L67.046 16.5319L67.0262 16.4923L67.0064 16.4725L66.9866 16.4329L66.9668 16.4131L66.947 16.3735L66.9272 16.3537L66.9074 16.3142L66.8876 16.2944L66.8678 16.2548L66.848 16.235L66.8283 16.1954L66.8085 16.1756L66.7887 16.136L66.7689 16.1162L66.7491 16.0964V16.0766L66.7293 16.0568L66.7095 16.037L66.6897 15.9975L66.6699 15.9777L66.6501 15.9381L66.6303 15.9183L66.6105 15.8787L66.5907 15.8589L66.5709 15.8193L66.5511 15.7995L66.5313 15.7599L66.5116 15.7401L66.4918 15.7005L66.472 15.6807L66.4522 15.661L66.4324 15.6214L66.4126 15.6016L66.3928 15.562L66.373 15.5422L66.3532 15.5026L47.5292 28.6062L47.4896 28.626L44.7501 30.5262V30.546L44.4651 30.736C44.6155 30.926 44.7501 31.1161 44.8649 31.3259L44.9164 31.3971ZM45.1618 31.8168L61.5512 23.1668L68.7206 19.3624C68.4157 18.7924 68.0911 18.2223 67.7704 17.6681L45.2568 31.2823L44.9718 31.4525C45.0272 31.5871 45.1064 31.698 45.1618 31.8128V31.8168ZM43.3566 29.4771L56.2108 16.1479L61.86 10.273L61.8402 10.2335L61.8204 10.2137L61.8006 10.1939L61.761 10.1741L61.7412 10.1543L61.7214 10.1147L61.7016 10.0949L61.662 10.0751L61.6422 10.0553L61.6224 10.0157L61.6027 9.99593L61.5631 9.97614L61.5433 9.95634L61.5235 9.93655L61.4839 9.89696L61.4641 9.87717L61.4443 9.85738L61.4245 9.83758L61.3849 9.81779L61.3651 9.7782L61.3453 9.75841L61.3057 9.73861L61.286 9.71882L61.2662 9.69902L61.2464 9.65944L61.2068 9.63964L61.187 9.61985L61.1672 9.60005L61.1276 9.58026L61.1078 9.54067L61.088 9.52088L61.0484 9.50108L61.0286 9.48129L61.0088 9.4615L60.989 9.4417L60.9495 9.40211L60.9297 9.38232L60.9099 9.36253L60.8703 9.34273L60.8505 9.32294L60.8307 9.28335L60.7911 9.26356L60.7713 9.24376L60.7515 9.22397L60.7317 9.20418H60.7119L60.6921 9.18438L60.6723 9.14479L60.6525 9.125L60.613 9.10521L60.5932 9.08541L60.5734 9.06562L60.5338 9.04582L60.514 9.00624L60.4942 8.98644L60.4546 8.96665L60.4348 8.94685L60.415 8.92706L60.3754 8.90727L60.3556 8.88747L60.3358 8.84789L60.2963 8.82809L60.2765 8.8083L60.2567 8.7885L60.2171 8.76871L44.0732 27.4621L44.0534 27.4819L42.9884 28.6972H43.0082L42.7786 28.9625C42.9489 29.0971 43.1389 29.2673 43.2933 29.4177L43.3566 29.4771ZM43.6812 29.8017L57.3351 17.288L63.3445 11.7932C62.9447 11.338 62.5251 10.9183 62.1094 10.4829L43.6654 29.3069L43.4358 29.5365C43.511 29.6315 43.606 29.7067 43.6812 29.8017ZM33.0915 27.3315L32.9767 27.0068L24.0575 2.19317L24.0971 2.17337L24.1169 2.15358H24.1565L24.1961 2.13379H24.2159V2.11399L24.2911 2.0942H24.3109L24.3505 2.0744L24.4059 2.05461L24.4455 2.03482H24.4851L24.5049 2.01502H24.5445L24.5841 1.99523L24.6038 1.97543L24.6791 1.95564L24.7741 1.93585L24.8137 1.91605L24.8335 1.89626H24.873L24.9285 1.87646L24.9681 1.85667H25.0076L25.0274 1.83688L25.1027 1.81708L25.1224 1.79729H25.1422H25.162L25.2016 1.77749H25.2412L25.261 1.7577H25.3006L25.3402 1.73791H25.36L25.3996 1.71811H25.4392V1.69832H25.459L25.4985 1.67852H25.5381L25.5777 1.65873H25.5975L25.6371 1.63894H25.6767L25.6965 1.61914H25.7361L25.7757 1.59935H25.7954L25.835 1.57956H25.8746L25.9142 1.55976H25.934L25.9736 1.53997H26.0132L26.033 1.52017L26.0726 1.50038H26.1121L26.1517 1.48059H26.1715L33.7011 26.7693H33.6813L33.7962 27.0939C33.5665 27.1493 33.3607 27.2285 33.1509 27.3037L33.0915 27.3315ZM28.6972 9.28731L26.4328 1.41329C27.0781 1.22326 27.7273 1.07283 28.3924 0.918438L30.1778 8.90331H30.1976L34.2475 26.987C34.097 27.0068 33.9624 27.0425 33.812 27.082L28.6972 9.28335V9.28731ZM34.3266 26.9712L34.2712 26.6268L28.717 0.843221H28.7368L28.7764 0.823427H28.816L28.8556 0.803633H28.8754H28.915L28.9546 0.783839H28.9941H29.0139L29.0535 0.764046H29.0931H29.1327L29.1525 0.744252H29.1921L29.2317 0.724458H29.2713H29.2911L29.3306 0.704664H29.3702H29.4098L29.4494 0.68487H29.4692H29.5088L29.5484 0.665076H29.588H29.6078L29.6473 0.645282H29.6869H29.7265L29.7463 0.625488H29.7859H29.8255L29.8651 0.605694H29.9047H29.9245L29.964 0.5859H30.0036H30.0432L30.063 0.566106H30.1026H30.1422L30.1818 0.546312H30.2214H30.2412L30.2808 0.526518H30.3203H30.3599L30.3797 0.506724H30.4193H30.4589H30.4985L30.5381 0.486931H30.5579H30.5975L30.637 0.467137H30.6766H30.6964L30.736 0.447343H30.7756H30.8152H30.8548L30.8746 0.427549H30.9142H30.9537L35.0432 26.4803L35.0986 26.8247C34.869 26.8643 34.6433 26.8999 34.4137 26.9593L34.3266 26.9712ZM32.3868 8.50743L31.1873 0.387961C31.797 0.312744 32.4225 0.237527 33.0519 0.178145L33.812 8.3372L35.5024 26.7812C35.3678 26.7812 35.2371 26.801 35.1026 26.8208L32.3829 8.50743H32.3868ZM30.7914 28.531L30.5816 28.2657L18.3371 10.7916L15.4472 6.68243L15.4868 6.66264L15.5066 6.64284L15.5461 6.62305L15.5659 6.60325L15.5857 6.58346H15.6055L15.6253 6.56367L15.6451 6.54387H15.6649L15.6847 6.52408L15.7045 6.50428L15.7441 6.48449L15.7639 6.4647L15.8035 6.4449L15.8233 6.42511L15.8629 6.40531L15.8826 6.38552L15.9024 6.36573H15.9222L15.942 6.34593L15.9618 6.32614L16.0014 6.30634L16.0212 6.28655L16.0608 6.26676L16.0806 6.24696L16.1202 6.22717L16.14 6.20738L16.1796 6.18758L16.1993 6.16779L16.2191 6.14799H16.2389L16.2587 6.1282L16.2785 6.10841H16.2983L16.3181 6.08861L16.3379 6.06882L16.3775 6.04902H16.3973V6.02923H16.4369V6.00944H16.4567L16.4963 5.98964L16.5161 5.96985L16.5556 5.95005L16.5754 5.93026L16.615 5.91047L16.6348 5.89067L16.6744 5.87088L16.6942 5.85108L16.7338 5.83129L16.7536 5.8115L16.7734 5.7917H16.7932L16.813 5.77191L16.8328 5.75211H16.8525L16.8723 5.73232L16.8921 5.71253L16.9317 5.69273L16.9515 5.67294L16.9911 5.65315L17.0109 5.63335L17.0505 5.61356H17.0703V5.59376H17.1099L17.1297 5.57397L17.1693 5.55418L17.189 5.53438L17.2286 5.51459L17.2484 5.49479L17.288 5.475L17.3078 5.45521L31.2269 27.8382H31.2071L31.3971 28.143C31.2071 28.2578 31.0369 28.3726 30.8666 28.4874L30.7914 28.531ZM21.7575 12.3118L17.5176 5.33248C18.0679 4.98807 18.638 4.66741 19.212 4.36258L23.0718 11.5676L31.8009 27.9015C31.6663 27.9767 31.5357 28.052 31.4011 28.1311L21.7614 12.3118H21.7575ZM31.8722 27.8659L31.702 27.5611L29.7067 23.721L29.6671 23.6815L25.5777 15.8272L19.4931 4.20819L19.5326 4.18839L19.5524 4.1686L19.592 4.14881L19.6316 4.12901H19.6514L19.691 4.10922L19.7108 4.08943L19.7504 4.06963L19.79 4.04984L19.8098 4.03004H19.8493L19.8691 4.01025L19.9087 3.99046L19.9483 3.97066L19.9681 3.95087L20.0077 3.93107H20.0275L20.0671 3.91128L20.1225 3.87169L20.1621 3.8519H20.1819L20.2215 3.8321L20.2611 3.81231L20.2809 3.79252L20.3204 3.77272L20.4155 3.73313L20.4352 3.71334L20.4748 3.69355L20.5303 3.67375L20.5698 3.65396L20.5896 3.63416H20.6292L20.649 3.61437L20.6886 3.59458L20.7282 3.57478L20.748 3.55499H20.7876L20.8074 3.53519L20.847 3.5154L20.8866 3.49561H20.9063L20.9459 3.47581L20.9855 3.45602L21.0053 3.43623L21.0449 3.41643H21.0647L21.1043 3.39664L21.1439 3.37684L21.1637 3.35705H21.2033L21.2428 3.33726L21.2626 3.31746L21.3022 3.29767H21.322L21.3616 3.27787L21.4012 3.25808L21.421 3.23829H21.4606L21.5002 3.21849L21.52 3.1987L32.3947 27.2325L32.5293 27.5373C32.3393 27.6323 32.1295 27.7273 31.9395 27.8223L31.8722 27.8659ZM25.0631 10.6016L21.7535 3.10765C22.3988 2.82261 23.0837 2.55738 23.7488 2.28818L26.5832 9.97218L33.0123 27.3512C32.8619 27.4067 32.6877 27.4858 32.5373 27.5413L25.0631 10.5977V10.6016ZM28.8279 30.3401L28.5824 30.1303L28.147 29.7701H28.1272L24.6672 26.9197L14.5327 18.5707L8.25803 13.3965L8.27782 13.3767L8.29761 13.3569L8.31741 13.3174L8.3372 13.2976L8.357 13.258L8.39658 13.2382L8.41638 13.2184L8.43617 13.1788L8.45597 13.159L8.47576 13.1194L8.49555 13.0996L8.51535 13.0798L8.55494 13.0402L8.57473 13.0204L8.59452 12.9809L8.61432 12.9611L8.63411 12.9413L8.6539 12.9017L8.69349 12.8819L8.71329 12.8621V12.8423L8.73308 12.8225L8.75287 12.8027L8.77267 12.7631L8.81226 12.7433L8.83205 12.7235L8.85184 12.6839L8.87164 12.6642L8.89143 12.6246L8.91123 12.6048L8.95081 12.585L8.97061 12.5454L8.9904 12.5256L9.0102 12.5058L9.02999 12.4662L9.06958 12.4464L9.08937 12.4266L9.10917 12.387L9.12896 12.3672L9.14875 12.3277L9.18834 12.3079L9.20813 12.2881L9.22793 12.2485L9.24772 12.2287L9.26752 12.2089L9.3071 12.1693L9.3269 12.1495L9.34669 12.1297L9.36649 12.0901L9.38628 12.0703L9.42587 12.0505L9.44566 12.011L9.46546 11.9912L9.48525 11.9714L9.52484 11.9318L9.54463 11.912L9.56443 11.8922L9.58422 11.8526L9.60401 11.8328L9.6436 11.813L9.66339 11.7734L9.68319 11.7536L9.70298 11.7338L9.74257 11.6943L9.76236 11.6745L29.0812 29.5682L29.3267 29.7978C29.1762 29.9522 29.0416 30.1026 28.8912 30.2728L28.8279 30.3401ZM15.8391 17.1059V17.0861L9.90488 11.4963C10.4552 10.9262 11.0094 10.376 11.5794 9.84154L17.1336 15.8114L29.7424 29.3861C29.5919 29.5207 29.4573 29.6513 29.3227 29.7859L15.8391 17.102V17.1059ZM18.7884 14.406L13.6934 8.01654C14.1685 7.6365 14.6831 7.23666 15.1938 6.87641L19.9483 13.5311L30.7123 28.5903C30.5975 28.6854 30.4668 28.7606 30.352 28.8556L18.7924 14.406H18.7884ZM27.4581 32.565L10.5541 24.9958L3.13932 21.6664L3.15911 21.6466L3.1789 21.607L3.1987 21.5675V21.5477L3.21849 21.5081L3.23829 21.4685L3.25808 21.4487V21.4091L3.27787 21.3695L3.29767 21.3497L3.31746 21.3101V21.2706L3.33726 21.2508L3.37684 21.1755V21.1557L3.39664 21.1162L3.41643 21.0766L3.43623 21.0568V21.0172L3.45602 20.9776L3.47581 20.9578L3.49561 20.9182L3.5154 20.8786V20.8588L3.5352 20.8193L3.55499 20.7797L3.57478 20.7599L3.59458 20.7203L3.61437 20.6649L3.63417 20.6253L3.65396 20.6055V20.5659L3.67375 20.5263L3.69355 20.5065L3.71334 20.4669L3.75293 20.4115V20.3719L3.77272 20.3323L3.79252 20.3125L3.81231 20.2729L3.8321 20.2531V20.2136L3.8519 20.174L3.87169 20.1542L3.89149 20.1146L3.91128 20.075V20.0552L3.93107 20.0156L3.95087 19.9958V19.976L3.97066 19.9562L3.99046 19.9166L4.01025 19.8969V19.8573L4.03004 19.8177L4.04984 19.7979L4.06963 19.7583L4.08943 19.7187L4.10922 19.6989V19.6593L4.12901 19.6395L4.14881 19.5999L27.4621 31.7693L27.7669 31.9395C27.6719 32.1097 27.5769 32.2997 27.5017 32.4897L27.4581 32.565ZM11.429 23.2104L4.25965 19.3862C4.56448 18.8359 4.86931 18.2817 5.18997 17.7314L27.7234 31.3259L28.0084 31.4961C27.9332 31.6465 27.8382 31.7811 27.763 31.9157L11.429 23.2064V23.2104ZM28.048 31.4248L12.2841 21.7258L5.36415 17.4662L5.38395 17.4266L5.40374 17.387L5.42354 17.3672L5.44333 17.3276L5.46312 17.3078L5.48292 17.2682L5.50271 17.2484L5.52251 17.2088V17.189L5.5423 17.1495L5.56209 17.1297L5.58189 17.0901L5.60168 17.0703L5.62147 17.0307L5.66106 16.9753L5.68086 16.9555L5.72044 16.9001L5.76003 16.8446L5.79962 16.7892L5.83921 16.7338L5.859 16.6942L5.91443 16.619L5.93422 16.5794L5.95401 16.5596L5.97381 16.52L5.9936 16.5002L6.01339 16.4606L6.03319 16.4408L6.05298 16.4012L6.07278 16.3815L6.09257 16.3419L6.11236 16.3221L6.15195 16.2666L6.17175 16.2271L6.21133 16.1716L6.23113 16.1518L6.25092 16.1123L6.27072 16.0925L6.29051 16.0529L6.3103 16.0331L6.3301 15.9935L6.34989 15.9737L6.36969 15.9341L6.38948 15.9143L6.40927 15.8747L6.42907 15.8549L6.44886 15.8153L6.46866 15.7956L6.48845 15.7758L6.50824 15.7362L6.52804 15.7164L6.54783 15.6768L6.56762 15.657L6.58742 15.6174L6.60721 15.5976L28.1707 30.6766L28.4557 30.8666C28.3212 31.0369 28.2103 31.2111 28.0955 31.3813L28.048 31.4248ZM13.3688 20.0908L6.74973 15.3759C7.14957 14.7861 7.58503 14.216 8.04425 13.6459L28.523 30.1897L28.7883 30.4193C28.6735 30.5539 28.5587 30.7043 28.4439 30.8389L13.3649 20.0948L13.3688 20.0908ZM27.0227 33.7249L9.29919 28.3251L1.53997 25.9657L1.55976 25.9261V25.9063L1.57956 25.8667V25.8271L1.59935 25.8073V25.7677L1.61914 25.7281L1.63894 25.7083V25.6688L1.65873 25.6292V25.6094L1.67853 25.5698V25.5302L1.69832 25.5104V25.4708L1.71811 25.4312V25.4114L1.73791 25.3719V25.3323L1.7577 25.3125V25.2729L1.77749 25.2333V25.2135L1.79729 25.1739V25.1541L1.81708 25.1145V25.0749L1.83688 25.0552L1.85667 25.0156V24.976L1.87646 24.9562V24.9166L1.89626 24.877V24.8572L1.91605 24.8176V24.778L1.93585 24.7582V24.7187H1.95564V24.6791L1.97543 24.6593V24.6197L1.99523 24.5999V24.5603L2.01502 24.5207V24.5009L2.03482 24.4613L2.05461 24.4217V24.402L2.0744 24.3624V24.3228L2.0942 24.303V24.2634L2.11399 24.2436L2.13379 24.204V24.1644L2.15358 24.1446V24.105L2.17337 24.0655V24.0457L2.19317 24.0061L2.21296 23.9863V23.9467L2.23275 23.9071V23.8873L26.9158 32.9569V32.9767L27.2206 33.0915C27.1652 33.2617 27.1058 33.4517 27.0504 33.6418L27.0227 33.7249ZM9.90884 26.5357L2.31985 23.6656C2.54946 23.0956 2.77511 22.5255 3.00472 21.9752L27.0979 32.5095L27.4225 32.6441C27.3473 32.7946 27.2879 32.949 27.2325 33.0796L9.90884 26.5397V26.5357ZM26.6228 35.7003L8.17885 34.0099L0.154393 33.2696C0.209816 32.5293 0.304826 31.8049 0.399837 31.0646L26.3536 35.059L26.698 35.0986C26.6585 35.3084 26.6426 35.5182 26.6228 35.7082V35.7003ZM26.698 35.0155L8.4243 32.0503L0.45526 30.7558V30.7162V30.6766L0.475054 30.637V30.6172V30.5777L0.494848 30.5381V30.4985V30.4787V30.4391L0.514642 30.3995V30.3599V30.3401L0.534436 30.3005V30.261V30.2412V30.2016L0.55423 30.162V30.1224V30.1026L0.574024 30.063V30.0234V29.9838L0.593818 29.964V29.9245V29.8849L0.613612 29.8651V29.8255V29.7859L0.633406 29.7463V29.7265V29.6869L0.6532 29.6473V29.6078V29.588V29.5484L0.672993 29.5088V29.489V29.4494L0.692787 29.4098V29.3702L0.712581 29.3504V29.3108V29.2713L0.732375 29.2515V29.2119V29.1723L0.752169 29.1327V29.1129V29.0733L0.771963 29.0337V29.0139V28.9743L0.791757 28.9348V28.8952V28.8754L0.811551 28.8358V28.7962V28.7764L0.831345 28.7368V28.6972L0.851139 28.6774V28.6379V28.5983L0.870933 28.5587L26.5041 34.2831L26.8287 34.3583C26.7891 34.5483 26.7535 34.7383 26.7139 34.9284L26.698 35.0155ZM8.80434 30.1659L0.914479 28.3409C1.08471 27.6363 1.25493 26.9514 1.46475 26.2665L26.6585 33.7011L26.9831 33.7961C26.9277 33.9862 26.8881 34.1762 26.8326 34.3464L8.80434 30.162V30.1659ZM26.5832 36.9751L8.06405 37.6599L0.0395879 37.9648C0.0197939 37.4699 0 36.9948 0 36.5C0 36.3298 0 36.1754 0 36.0051L26.2428 36.4248V36.4446H26.5832L26.5634 36.6544C26.5634 36.7692 26.5832 36.884 26.5832 36.979V36.9751ZM26.5832 36.3456L8.06405 35.8903L0.0197939 35.6805V35.6409V35.6014V35.5816V35.542V35.3124V35.2728V35.253V35.2134V35.1738V35.1342V35.1144L0.0395879 35.0748V35.0194V34.9798V34.9402V34.8452V34.8056V34.7858V34.7463V34.6512L0.0593818 34.576V34.5562V34.5166V34.4771V34.4216V34.382V34.3425V34.3227L0.0791757 34.2831V34.2435V34.2039V34.1485V34.1089V34.0535V33.998L0.0989696 33.9585V33.9189V33.8793V33.8595V33.8199V33.7803V33.7605V33.7209L0.118764 33.6813V33.6615V33.622V33.5824V33.5428L26.2665 35.7122L26.607 35.7518C26.607 35.9418 26.5872 36.112 26.5872 36.3021L26.5832 36.3456ZM26.6228 37.6401L8.19864 39.5799L0.213774 40.4152V40.3756V40.3361L0.19398 40.3163V40.2767V40.2371V40.1975V40.1777V40.1381L0.174187 40.0985V40.0589V40.0392V39.9996V39.9243L0.154393 39.9046V39.865V39.8254V39.7858V39.766L0.134599 39.6908V39.6512V39.6314V39.5918V39.5522V39.5126V39.4928L0.114805 39.4533V39.4137V39.3582V39.3187V39.2434L0.0950108 39.2236V39.1841V39.1088V39.0534V38.9782L0.0752169 38.9584V38.9188V38.8792V38.8396V38.7842V38.709V38.6694L0.055423 38.6496V38.5744V38.5348V38.515V38.4754V38.4358V38.3963V38.3765V38.3369L0.0356291 38.2973V38.2577V38.2379L26.2388 37.0384L26.5793 37.0186C26.5793 37.2086 26.5991 37.3986 26.6189 37.5887L26.6228 37.6401ZM26.8524 38.9901L26.508 39.0653L1.08471 45.34C1.25493 46.0605 1.46475 46.7849 1.69436 47.4896L9.33877 45.1143L27.0227 39.5997C26.9475 39.3899 26.9079 39.1999 26.8524 38.9901ZM10.0039 47.0145L27.2523 40.245C27.1771 40.055 27.1018 39.865 27.0425 39.6749L26.7178 39.7897L1.78937 47.7944V47.834L1.80916 47.8736L1.82896 47.9132V47.9528L1.84875 47.9726V48.0121L1.86855 48.0517L1.88834 48.0913V48.1111L1.90813 48.1507V48.1903L1.94772 48.2655V48.2853L1.96752 48.3605L1.98731 48.4001L2.0071 48.4199V48.4595L2.04669 48.5743L2.06649 48.5941V48.6337L2.08628 48.6733L2.10607 48.7128L2.12587 48.8079L2.14566 48.8475L2.16546 48.8672V48.9068L2.18525 48.9464L2.20504 48.986V49.0058L2.22484 49.081L2.24463 49.1206L2.26443 49.1602L2.28422 49.2156L2.30401 49.2908L2.32381 49.3106L2.3436 49.3502V49.3898L2.36339 49.4294L2.38319 49.4492V49.4888L2.42278 49.564V49.5838L2.44257 49.6234L2.46236 49.663V49.7025L2.48216 49.7223L2.50195 49.7619V49.8015L2.52175 49.8213L2.54154 49.8609V49.9005L2.56133 49.9401L2.58113 49.9599V49.9995L10.0355 47.07L10.0039 47.0145ZM26.698 38.2498L8.4243 41.2545L0.494848 42.5649C0.399837 41.9552 0.32462 41.3456 0.249403 40.7399L26.3022 37.7549V37.7747L26.6268 37.7351C26.6466 37.9054 26.6822 38.0796 26.702 38.2498H26.698ZM26.8326 38.8951L8.80434 43.1745L1.00949 45.0391L0.989696 44.9995V44.9599V44.9401L0.969902 44.9005V44.861L0.950108 44.8214V44.8016V44.762L0.930314 44.7224V44.6828L0.910521 44.663V44.6234V44.5838L0.890727 44.5443V44.5245V44.5047L0.870933 44.4849V44.4453V44.4057L0.851139 44.3859V44.3661V44.3463L0.831345 44.3067V44.2671V44.2276L0.811551 44.2078V44.1682L0.791757 44.1286V44.089V44.0692L0.771963 44.0296V43.99V43.9504L0.752169 43.9306V43.891V43.8515H0.732375V43.8119V43.7723L0.712581 43.7525V43.7129V43.6733L0.692787 43.6337V43.6139V43.5743L0.672993 43.5348V43.4952V43.4754V43.4556L0.6532 43.4358V43.3962V43.3566L0.633406 43.317V43.2972V43.2576L0.613612 43.2181V43.1785V43.1587V43.1389L0.593818 43.1191V43.0795V43.0399L0.574024 43.0003V42.9805V42.9409L0.55423 42.9014V42.8618V42.8222L0.534436 42.8024L26.3576 38.2973L26.698 38.2419C26.7376 38.4319 26.7733 38.6219 26.8129 38.8119L26.8326 38.8951ZM27.8223 41.4643L11.6586 50.5339L4.69908 54.4333L4.67928 54.3937L4.65949 54.3739L4.6397 54.3343V54.3145L4.6199 54.2749L4.60011 54.2552V54.2354L4.58031 54.2156L4.56052 54.176L4.54073 54.1562L4.52093 54.1166V54.0968L4.50114 54.0572L4.48135 54.0374L4.46155 53.9978L4.44176 53.9582L4.42196 53.9384L4.40217 53.8989V53.8791L4.38238 53.8395L4.36258 53.8197L4.34279 53.7801L4.32299 53.7603V53.7405L4.3032 53.7207L4.28341 53.6811L4.26361 53.6257L4.24382 53.6059L4.22402 53.5663L4.20423 53.5267L4.18444 53.5069V53.4674L4.16464 53.4476L4.14485 53.408L4.10526 53.3526L4.08547 53.313V53.2932L4.06567 53.2536L4.04588 53.2338L4.02608 53.1942L4.00629 53.1744L3.9865 53.0992L3.9667 53.0794L3.92711 53.024V52.9844H3.90732V52.9448L3.88753 52.925L3.86773 52.8854L3.84794 52.8656L3.82815 52.826V52.7864L3.80835 52.7667L3.78856 52.7271L3.76876 52.7073L3.74897 52.6677V52.6281L3.72918 52.6083L3.70938 52.5687L3.68959 52.5489V52.5093L3.66979 52.4697L3.65 52.4499L27.1929 41.0011L27.4977 40.8507C27.5927 41.0407 27.6877 41.2307 27.7828 41.401L27.8223 41.4643ZM10.7639 48.7841L3.55895 52.2243C3.23433 51.579 2.9493 50.9139 2.68406 50.2489L26.9672 40.4548L27.2721 40.3202C27.3473 40.4905 27.4225 40.6646 27.5017 40.8349L10.7679 48.7841H10.7639ZM28.523 42.5649L13.6895 53.6495L7.31979 58.4238L7.28021 58.404L7.26041 58.3644L7.24062 58.3446L7.22082 58.305L7.20103 58.2852L7.18124 58.2654V58.2456L7.16144 58.2258L7.14165 58.206L7.12185 58.1664L7.10206 58.1466L7.08227 58.107L7.06247 58.0873L7.04268 58.0675L7.02288 58.0279L7.00309 58.0081L6.9833 57.9685L6.9635 57.9487L6.94371 57.9289L6.92392 57.8893L6.90412 57.8695L6.88433 57.8299L6.86453 57.8101L6.84474 57.7706L6.82495 57.7508L6.80515 57.731L6.78536 57.6914L6.76556 57.6716L6.74577 57.632L6.72598 57.6122L6.70618 57.5726L6.68639 57.5528L6.66659 57.533L6.6468 57.4934H6.62701L6.60721 57.4736L6.58742 57.4341L6.56762 57.4143L6.54783 57.3747L6.52804 57.3549L6.50824 57.3351L6.48845 57.2955L6.46866 57.2757L6.44886 57.2361L6.42907 57.2163L6.40927 57.1767L6.38948 57.1569L6.36969 57.1174L6.34989 57.0976V57.0778H6.3301V57.0382H6.3103V57.0184H6.29051V56.9788L6.27072 56.959L6.25092 56.9194L6.23113 56.8996L6.21133 56.86L6.19154 56.8402L6.17175 56.8007L6.15195 56.7809L6.13216 56.7611L6.11236 56.7215L6.09257 56.7017L6.07278 56.6621L6.05298 56.6423L6.03319 56.6027L27.8263 42.1531L28.1113 41.9631C28.2261 42.1531 28.3568 42.3234 28.4716 42.4936L28.523 42.5649ZM12.5889 52.0739L5.89463 56.4087C5.53438 55.8585 5.18997 55.2884 4.84951 54.7144L27.5729 41.7098L27.858 41.5395C27.9332 41.69 28.0282 41.8246 28.1034 41.979L12.5889 52.0739ZM38.1469 46.4445L41.1912 64.7182L42.4857 72.5131H42.5253L42.5649 72.4933H42.6203L42.6599 72.4735H42.7153H42.7549L42.7945 72.4537H42.8341H42.8539L42.8934 72.4339H42.933L42.9884 72.4141H43.028H43.0676L43.0874 72.3943H43.1626H43.1824L43.222 72.3745H43.2616H43.3012L43.321 72.3547H43.3606L43.416 72.3349H43.4556H43.4952L43.515 72.3151H43.5546H43.5941L43.6337 72.2953H43.6535H43.6931L43.7327 72.2755H43.7525H43.7921L43.8673 72.2558H43.8871L43.9267 72.236H43.9663H43.9861L44.0613 72.2162L44.0811 72.1964H44.1207H44.1603L44.1998 72.1766H44.2196H44.2592L44.2988 72.1568H44.3186H44.3582L44.3978 72.137H44.4176L44.4572 72.1172H44.4967H44.5165L44.5561 72.0974H44.5957H44.6155L38.9109 46.6345L38.8357 46.2901C38.6259 46.3455 38.4161 46.3851 38.2102 46.4247L38.1469 46.4445ZM43.0716 64.3382L44.8768 72.038C45.6567 71.848 46.4168 71.6382 47.1571 71.4086L39.5324 46.4603L39.4374 46.1357C39.2474 46.1911 39.0574 46.2505 38.8476 46.2861L43.0676 64.3303L43.0716 64.3382ZM37.4818 46.5197L37.5214 46.8601L39.8966 72.8337H39.857L39.8373 72.8535H39.7977H39.7581H39.7185H39.6987H39.6591L39.6195 72.8733H39.5799H39.5601H39.5206H39.481H39.4414H39.4216L39.382 72.8931H39.3068H39.287H39.2474H39.2078H39.1682L39.1128 72.9129H39.0376H38.998H38.9782H38.9386H38.8634L38.8436 72.9327H38.804H38.7288H38.709H38.5942H38.5744L38.5348 72.9525H38.4952H38.42H38.4002H38.3606H38.321H38.2815H38.226H38.1864L38.131 72.9723H38.0914H38.0518H38.0123H37.9727H37.9529H37.9133H37.8737H37.8341H37.8143H37.7747H37.7351H37.6956L36.7811 46.9195V46.5751C36.9909 46.5553 37.2165 46.5553 37.4264 46.5197H37.4818ZM38.0518 46.4643L38.1073 46.7889L42.1769 72.5725C41.5316 72.6675 40.8824 72.7427 40.2173 72.8179L39.4176 64.9439L37.5728 46.5197C37.7233 46.4999 37.8974 46.4801 38.0479 46.4643H38.0518ZM36.1873 46.5791L36.1675 46.9235L35.1421 72.9762C34.4573 72.9565 33.7724 72.9208 33.0875 72.8417L35.5024 46.8681L35.542 46.5434C35.7518 46.5632 35.9616 46.5632 36.1873 46.583V46.5791ZM36.7375 46.5791L37.2324 65.0983L37.4224 72.9881C37.1176 73.0079 36.8127 73.0079 36.4921 73.0079C36.1477 73.0079 35.8072 72.9881 35.4668 72.9881L35.7122 65.0785L36.2625 46.5751H36.4921H36.7375V46.5791ZM34.1881 46.3138L34.1129 46.6384L28.2182 72.0618H28.2578L28.2776 72.0816H28.3172L28.3568 72.1014H28.3766H28.4162L28.4557 72.1212H28.4755H28.5151L28.5547 72.1409H28.5745L28.6141 72.1607H28.6339H28.6735L28.7131 72.1805H28.7329H28.7725L28.812 72.2003H28.8318H28.8714L28.911 72.2201H28.9308H28.9704L29.01 72.2399H29.0298H29.0694L29.1089 72.2597H29.1287H29.1683L29.1881 72.2795H29.2277H29.2673L29.2871 72.2993H29.3267H29.3663L29.3861 72.3191H29.4257H29.4652L29.485 72.3389H29.5246H29.5642L29.584 72.3587H29.6236H29.6632L29.683 72.3785H29.7226H29.7621L29.7819 72.3983H29.8215H29.8611L29.8809 72.4181H29.9205H29.9601H29.9799L30.0195 72.4379H30.0591H30.0789L30.1184 72.4576H30.158H30.1778L30.2174 72.4774H30.257H30.2768H30.3164L34.8611 46.7889L34.9165 46.4643C34.6869 46.4247 34.4771 46.3693 34.2712 46.3297L34.1881 46.3138ZM31.8484 64.7222L30.5539 72.517C31.2744 72.6516 32.0187 72.7466 32.7787 72.8219L33.5784 64.9478L35.443 46.5236C35.2728 46.5038 35.1026 46.4841 34.9125 46.4484L31.8524 64.7222H31.8484ZM29.7938 43.9781L29.5642 44.2236H29.5444L12.0307 63.6018L12.0505 63.6216L12.0703 63.6414L12.1099 63.6612L12.1297 63.681L12.1693 63.7206L12.1891 63.7404L12.2089 63.7602L12.2485 63.78L12.2683 63.8196L12.3079 63.8394L12.3277 63.8592L12.3475 63.879L12.387 63.9185L12.4068 63.9383L12.4464 63.9581L12.4662 63.9779L12.486 63.9977V64.0175L12.5256 64.0373L12.5454 64.0571L12.585 64.0769L12.6048 64.0967L12.6246 64.1363L12.6642 64.1561L12.6839 64.1759L12.7235 64.1957L12.7433 64.2155L12.7631 64.2551L12.8027 64.2748L12.8225 64.2946L12.8621 64.3144L12.8819 64.354L12.9017 64.3738L12.9413 64.3936L12.9611 64.4134L13.0007 64.4332L13.0204 64.4728L13.06 64.4926L13.0798 64.5124L13.0996 64.5322L13.1392 64.552L13.159 64.5717V64.5915L13.1986 64.6113L13.2184 64.6311L13.258 64.6509L13.2778 64.6707L13.2976 64.6905L13.3371 64.7301L13.3569 64.7499L13.3965 64.7697L13.4163 64.7895L13.4559 64.8093L13.4757 64.8489L13.5153 64.8687L13.5351 64.8885L13.5549 64.9082L13.5945 64.928L13.6143 64.9478L13.6538 64.9874L13.6736 65.0072L13.7132 65.027L13.733 65.0468L13.7726 65.0666L13.7924 65.0864L13.8122 65.126L18.7765 58.9265L25.5658 50.4626V50.4428L30.1501 44.7382L30.3599 44.4532C30.1897 44.3186 30.0155 44.188 29.8651 44.0336L29.7938 43.9781ZM20.1898 59.9716L30.7835 44.7778C30.6489 44.6828 30.4985 44.568 30.3639 44.4532L25.4194 50.7279L14.0101 65.2566C14.5406 65.6763 15.0948 66.0919 15.6649 66.4759L20.1898 59.9716ZM29.394 43.5981L29.1644 43.8435L10.5304 62.1569C10.95 62.5765 11.3657 62.9764 11.7853 63.3762L17.1653 57.537L29.7146 43.9029C29.5998 43.8079 29.5048 43.7129 29.39 43.5981H29.394ZM31.219 45.4627L31.409 45.1777C31.219 45.0629 31.029 44.948 30.8587 44.8372L30.6687 45.1222L24.6791 53.8672L15.9302 66.6659L15.9499 66.6857L15.9895 66.7055L16.0093 66.7253L16.0489 66.7451L16.0687 66.7649L16.1083 66.7847L16.1637 66.8243L16.1835 66.8441L16.2389 66.8837L16.2785 66.9035L16.2983 66.9233L16.3379 66.9431L16.3577 66.9629L16.4131 67.0024L16.4527 67.0222L16.4725 67.042L16.5121 67.0618L16.5319 67.0816L16.5715 67.1014L16.6111 67.1212L16.6309 67.141L16.6704 67.1608L16.6902 67.1806L16.7298 67.2004L16.7496 67.2202L16.7892 67.24L16.809 67.2598L16.8486 67.2796L16.8684 67.2993L16.908 67.3191L16.9278 67.3389L16.9674 67.3587L16.9871 67.3785L17.0267 67.3983L17.0465 67.4181L17.0861 67.4379L17.1257 67.4577L17.1455 67.4775L17.1851 67.4973L17.2049 67.5171L17.2445 67.5369L17.2643 67.5567L17.3039 67.5765L17.3236 67.5963L17.3632 67.6161L17.383 67.6358H17.4226L17.4622 67.6556L17.482 67.6754L17.5216 67.6952L17.5414 67.715L17.581 67.7348L17.6008 67.7546L17.6403 67.7744L17.6601 67.7942L17.6997 67.814L17.7195 67.8338L17.7591 67.8536L17.7987 67.8734L17.8185 67.8932L17.8581 67.913L31.2823 45.5339V45.5142L31.219 45.4627ZM22.0742 61.187H22.094L18.0639 68.0119C18.6142 68.3366 19.1486 68.6414 19.7187 68.9264L23.3687 61.8917L31.9078 45.4627C31.7732 45.3875 31.6228 45.3123 31.4684 45.2172L22.0742 61.1909V61.187ZM32.4185 46.0882L32.5531 45.7636C32.3631 45.6883 32.173 45.5933 31.983 45.4983L31.8326 45.8031L20.0037 69.0768L20.0235 69.0966H20.0631L20.1027 69.1164L20.1225 69.1362L20.1621 69.156L20.1819 69.1758H20.2215L20.2611 69.1956L20.2809 69.2154L20.3204 69.2352L20.3402 69.255H20.3798L20.4194 69.2748L20.4392 69.2946L20.4788 69.3144L20.4986 69.3342H20.5382L20.5778 69.354L20.5976 69.3738L20.6371 69.3935H20.6767L20.6965 69.4133L20.7361 69.4331L20.7559 69.4529L20.7955 69.4727H20.8351L20.8549 69.4925L20.8945 69.5123L20.9143 69.5321H20.9538L20.9934 69.5519L21.0132 69.5717L21.0528 69.5915L21.0924 69.6113H21.1122L21.1518 69.6311L21.1914 69.6509L21.2112 69.6707H21.2508L21.2706 69.6905L21.3101 69.7103L21.3497 69.73H21.3695L21.4091 69.7498L21.4487 69.7696L21.4685 69.7894H21.5081L21.5279 69.8092H21.5477L21.5675 69.829H21.607L21.6268 69.8488L21.6664 69.8686L21.706 69.8884H21.7258L21.7654 69.9082L21.805 69.928L21.8248 69.9478H21.8644L21.904 69.9676L21.9238 69.9874L21.9633 70.0072H22.0029L22.0227 70.027L22.0623 70.0467L32.5016 46.1238L32.4185 46.0882ZM25.3639 62.8418H25.3837L22.2642 70.1259C22.8343 70.3714 23.4043 70.601 23.9942 70.8108L32.9688 46.298L33.1034 45.9932C32.9331 45.9377 32.7787 45.8586 32.6283 45.8031L25.3639 62.8418ZM26.9593 63.4712L24.299 70.9256H24.3188L24.3584 70.9454H24.3782L24.4178 70.9652H24.4574L24.4772 70.985L24.5168 71.0048H24.5366L24.5761 71.0246H24.5959H24.6157L24.6355 71.0444H24.6751L24.6949 71.0642H24.7345L24.7543 71.084H24.7939L24.8335 71.1037L24.8533 71.1235H24.8928L24.9126 71.1433H24.9522L24.9918 71.1631H25.0116L25.0512 71.1829H25.071L25.1106 71.2027H25.1304L25.17 71.2225H25.2095L25.2293 71.2423H25.2689L25.2887 71.2621H25.3283L25.3679 71.2819H25.3877L25.4273 71.3017H25.4471L25.4867 71.3215H25.5262L25.546 71.3413H25.5856L25.6054 71.3611H25.645L25.6846 71.3809H25.7044L25.744 71.4007H25.7638L25.8034 71.4204H25.8429L25.8984 71.4402L25.9182 71.46H25.9578L25.9973 71.4798H26.0171L26.0567 71.4996H26.0963L26.1161 71.5194H26.1557L26.1755 71.5392H26.2151L26.2547 71.559H26.2745L26.314 71.5788L33.7091 46.5553L33.8041 46.2109C33.614 46.1713 33.4438 46.1159 33.2538 46.0407L27.0345 63.495L26.9593 63.4712ZM28.7091 64.0215L26.5397 71.6263C26.995 71.7609 27.4542 71.8717 27.9094 71.9866L29.7542 64.3026L34.0891 46.294C33.9941 46.2544 33.8991 46.2386 33.8041 46.2188L28.7091 64.0175V64.0215ZM29.3346 43.5427L16.0252 56.4167L10.3008 61.9312L10.281 61.9114L10.2612 61.8917L10.2414 61.8521L10.2018 61.8323L10.182 61.8125L10.1266 61.7373L10.1068 61.7175L10.0672 61.6977L10.0474 61.6779L10.0078 61.6225L9.98802 61.6027L9.96822 61.5829L9.92863 61.5433L9.90884 61.5235L9.88905 61.5037L9.86925 61.4839L9.82966 61.4285L9.79008 61.4087L9.77028 61.3889L9.75049 61.3691L9.73069 61.3295L9.7109 61.3097L9.65548 61.2701L9.63568 61.2305L9.61589 61.2107L9.5961 61.1909L9.5763 61.1712L9.55651 61.1316L9.50108 61.092L9.48129 61.0722L9.4615 61.0326L9.4417 61.0128L9.42191 60.993L9.40211 60.9732L9.38232 60.9336L9.34273 60.9138L9.32294 60.894L9.30315 60.8742L9.28335 60.8347L9.26356 60.8149L9.24376 60.7951L9.22397 60.7555L9.18438 60.7357L9.16459 60.7159L9.14479 60.6961L9.125 60.6565L9.10521 60.6367L9.08541 60.6169L9.06562 60.5971L9.04582 60.5575L9.00624 60.5377L8.98644 60.518L8.96665 60.4982L8.94685 60.4586L8.92706 60.4388L8.90727 60.419L8.88747 60.3794L8.86768 60.3596L28.626 43.2656L28.8912 43.036C29.0258 43.1864 29.1565 43.3408 29.2911 43.4912L29.3346 43.5427ZM14.7702 55.0073H14.7504L8.70537 60.1617C8.28574 59.6866 7.8859 59.1918 7.50586 58.6771L28.3093 42.8578L28.5745 42.648C28.6695 42.7628 28.7645 42.8934 28.8793 43.0082L14.7702 55.0073ZM46.3534 35.5934L46.6978 35.5538L52.2322 35.0788L72.8456 33.329V33.3488L72.8654 33.3884V33.428V33.4676V33.4874V33.527V33.5665V33.6061L72.8852 33.6259V33.6655V33.7051V33.7447V33.7645V33.8041V33.8437L72.905 33.8832V33.903V33.9426V33.9822V34.0218V34.0416V34.0812V34.1208L72.9248 34.1604V34.1801V34.2197V34.2593V34.2791V34.2989V34.3187V34.3583V34.3979V34.4375V34.4573L72.9446 34.4969V34.5364V34.576V34.5958V34.6354V34.675V34.7146V34.7344V34.774V34.8136V34.8531L72.9644 34.8729V34.9125V34.9521V34.9917V35.0115V35.0511V35.0907V35.1303V35.1501V35.1896V35.2292V35.2688V35.2886L72.9842 35.3282V35.3678V35.4074V35.4272V35.4668V35.5063V35.5459L64.9399 35.7914L46.4207 36.3416C46.4009 36.112 46.4009 35.9062 46.3653 35.6766L46.3534 35.5934ZM64.932 37.4778V37.4976L46.4128 36.8127V36.6623C46.4128 36.5673 46.4128 36.4525 46.4128 36.3575L46.7533 36.3377L72.9762 35.7874C72.9762 36.0329 72.996 36.2625 72.996 36.5079C72.996 36.9473 72.9762 37.363 72.9565 37.7826L64.932 37.4778ZM46.1436 34.3227L46.4682 34.2474V34.2277L72.1211 28.6181L72.1409 28.6379V28.6774L72.1607 28.717V28.7566V28.7764L72.1805 28.8516V28.8714L72.2003 28.911V28.9506V28.9902L72.2201 29.01V29.0496L72.2399 29.105V29.1446L72.2597 29.1842V29.2238V29.2435L72.2795 29.2831V29.3227L72.2993 29.3781V29.4177V29.4573L72.3191 29.4771V29.5167V29.5563L72.3389 29.6117V29.6513L72.3943 29.8809V29.9205L72.4141 30.0155L72.4339 30.0709V30.1659V30.1857L72.4537 30.2055V30.2451L72.4735 30.3797L72.4933 30.4193V30.4391V30.5143L72.5131 30.5539V30.5737V30.6133L72.5329 30.6529V30.7083V30.7479L64.5638 32.0424L46.2901 35.0273C46.2505 34.7977 46.1951 34.5721 46.1555 34.3623L46.1436 34.3227ZM64.7974 33.7724L46.3534 35.5024C46.3336 35.3678 46.3138 35.2174 46.298 35.063L46.6226 35.0234V35.0036L72.5804 31.029C72.6754 31.6742 72.7704 32.3393 72.8258 33.0084L64.8014 33.7684L64.7974 33.7724ZM45.7636 33.143L46.0882 33.0281L70.8068 24.0734L70.8266 24.113L70.8464 24.1525V24.1723V24.1921L70.8662 24.2119V24.2515L70.9058 24.3069V24.3465L70.9256 24.3861V24.4059L70.9454 24.4455L70.9652 24.4851L70.985 24.5801L71.0048 24.6197L71.0246 24.6751L71.0444 24.7147L71.0641 24.7701V24.8097L71.0839 24.8493L71.1394 24.9997V25.0393L71.179 25.0947V25.1343L71.1987 25.1898L71.2185 25.265L71.2383 25.3046V25.3244L71.2581 25.3639L71.2779 25.4035L71.2977 25.4985L71.3175 25.5381V25.5579L71.3373 25.5975V25.6371L71.3571 25.6767L71.3769 25.7321L71.3967 25.7717V25.7915L71.4165 25.8311V25.8707L71.4363 25.9102V25.93L71.4561 25.9696V26.0092L71.4759 26.0488V26.0686L71.4957 26.1082V26.1478L71.5154 26.1874V26.2072L63.7562 28.527L46.0169 33.7922C45.9417 33.6022 45.8823 33.3924 45.7873 33.1825L45.7636 33.143ZM64.1719 30.1026L46.108 34.2277C46.0882 34.0931 46.0526 33.9822 46.013 33.8476L46.3376 33.7526L71.5907 26.4882C71.7609 27.0781 71.9153 27.6877 72.0657 28.2934L64.1759 30.0986L64.1719 30.1026Z" fill="url(#paint1_radial_172_107)"/>
<path d="M36.4913 48.4911C43.1182 48.4911 48.4903 43.119 48.4903 36.4921C48.4903 29.8652 43.1182 24.493 36.4913 24.493C29.8644 24.493 24.4922 29.8652 24.4922 36.4921C24.4922 43.119 29.8644 48.4911 36.4913 48.4911Z" fill="url(#paint2_linear_172_107)"/>
<path fill-rule="evenodd" clip-rule="evenodd" d="M27.0579 34.4177C28.198 29.2079 33.3524 25.8984 38.5621 27.0583C43.7917 28.1985 47.0814 33.3528 45.9413 38.5626C44.8012 43.7921 39.6468 47.0819 34.4173 45.9417C29.2075 44.8016 25.898 39.6473 27.0579 34.4177Z" fill="url(#paint3_linear_172_107)"/>
<path fill-rule="evenodd" clip-rule="evenodd" d="M32.098 28.5428C34.0576 28.5428 35.6529 30.1382 35.6529 32.0978C35.6529 34.0574 34.0576 35.6528 32.098 35.6528C30.1384 35.6528 28.543 34.0574 28.543 32.0978C28.543 30.1382 30.1384 28.5428 32.098 28.5428Z" fill="white"/>
</g>
<defs>
<linearGradient id="paint0_linear_172_107" x1="36.4724" y1="36.4921" x2="35.9973" y2="-15.2136" gradientUnits="userSpaceOnUse">
<stop stop-color="#93BF85" stop-opacity="0"/>
<stop offset="1" stop-color="#002611" stop-opacity="0.447059"/>
</linearGradient>
<radialGradient id="paint1_radial_172_107" cx="0" cy="0" r="1" gradientUnits="userSpaceOnUse" gradientTransform="translate(36.671 36.5257) rotate(88.5655) scale(16.4326 16.433)">
<stop stop-color="#1F1F02"/>
<stop offset="1" stop-color="#003D23" stop-opacity="0"/>
</radialGradient>
<linearGradient id="paint2_linear_172_107" x1="36.3369" y1="32.4779" x2="36.3369" y2="51.0366" gradientUnits="userSpaceOnUse">
<stop stop-color="#140A00"/>
<stop offset="1" stop-color="#1FA672"/>
</linearGradient>
<linearGradient id="paint3_linear_172_107" x1="39.5677" y1="40.5419" x2="48.1463" y2="51.9472" gradientUnits="userSpaceOnUse">
<stop stop-color="#26D491" stop-opacity="0"/>
<stop offset="0.631373" stop-color="#1EF598"/>
<stop offset="1" stop-color="#1FFF9E"/>
</linearGradient>
<clipPath id="clip0_172_107">
<rect width="73" height="73" fill="white"/>
</clipPath>
</defs>
</svg>
